<?xml version="1.0" encoding="utf-8"?>
<!-- Generator: Adobe Illustrator 23.1.1, SVG Export Plug-In . SVG Version: 6.00 Build 0)  -->
<svg version="1.1" xmlns="http://www.w3.org/2000/svg" xmlns:xlink="http://www.w3.org/1999/xlink" x="0px" y="0px"
	 viewBox="100 0 1140 730" style="enable-background:new 100 0 1140 750;" xml:space="preserve">
<style type="text/css">
	.st0{fill:none;stroke:#B7B9BA;stroke-width:0.3672;stroke-miterlimit:10;}
	.st1{fill:none;stroke:#000000;stroke-width:0.7164;stroke-miterlimit:10;}
	.st2{fill:#858585;}
	.st3{opacity:0.12;}
	.st4{fill:none;stroke:#B7B9BA;stroke-width:0.35;stroke-miterlimit:10;}
	.st5{fill:none;stroke:#0096C2;stroke-width:4;stroke-linecap:round;stroke-linejoin:round;stroke-miterlimit:10;}
	.st6{fill:none;stroke:#7D7D7D;stroke-width:4;stroke-linecap:round;stroke-linejoin:round;stroke-miterlimit:10;}
	.st7{fill:none;stroke:#CA0000;stroke-width:4;stroke-linecap:round;stroke-linejoin:round;stroke-miterlimit:10;}
	.st8{fill:none;stroke:#B7B9BA;stroke-width:0.5126;stroke-miterlimit:10;}
	.st9{fill:none;stroke:#000000;stroke-miterlimit:10;}
	.st10{opacity:5.000000e-02;}
	.st11{fill:none;stroke:#B7B9BA;stroke-width:0.5351;stroke-miterlimit:10;}
	.st12{fill:none;stroke:#0096C2;stroke-width:7.4908;stroke-linecap:round;stroke-linejoin:round;stroke-miterlimit:10;}
	.st13{fill:none;stroke:#7D7D7D;stroke-width:7.4908;stroke-linecap:round;stroke-linejoin:round;stroke-miterlimit:10;}
	.st14{fill:none;stroke:#CA0000;stroke-width:7.4908;stroke-linecap:round;stroke-linejoin:round;stroke-miterlimit:10;}
	.st15{clip-path:url(#SVGID_2_);}
	.st16{clip-path:url(#SVGID_4_);}
	.st17{fill:#848687;}
	.st18{fill:none;stroke:#B7B9BA;stroke-miterlimit:10;}
	.st19{fill:none;stroke:#0096C2;stroke-width:7;stroke-linecap:round;stroke-linejoin:round;stroke-miterlimit:10;}
	.st20{fill:none;stroke:#7D7D7D;stroke-width:7;stroke-linecap:round;stroke-linejoin:round;stroke-miterlimit:10;}
	.st21{clip-path:url(#SVGID_6_);fill:none;stroke:#B7B9BA;stroke-width:0.5351;stroke-miterlimit:10;}
	
		.st22{clip-path:url(#SVGID_6_);fill:none;stroke:#0096C2;stroke-width:7.4908;stroke-linecap:round;stroke-linejoin:round;stroke-miterlimit:10;}
	
		.st23{clip-path:url(#SVGID_6_);fill:none;stroke:#7D7D7D;stroke-width:7;stroke-linecap:round;stroke-linejoin:round;stroke-miterlimit:10;}
	.st24{clip-path:url(#SVGID_6_);}
	
		.st25{clip-path:url(#SVGID_6_);fill:none;stroke:#CA0000;stroke-width:7.4908;stroke-linecap:round;stroke-linejoin:round;stroke-miterlimit:10;}
	.st26{fill:#F5F5F5;stroke:#000000;stroke-width:4.1577;stroke-linecap:round;stroke-linejoin:round;stroke-miterlimit:10;}
	.st27{fill:#FFFFFF;}
	.st28{fill:none;stroke:#CA0000;stroke-width:7;stroke-linecap:round;stroke-linejoin:round;stroke-miterlimit:10;}
	.st29{clip-path:url(#SVGID_8_);}
	.st30{clip-path:url(#SVGID_8_);fill:none;stroke:#B7B9BA;stroke-width:0.5351;stroke-miterlimit:10;}
	
		.st31{clip-path:url(#SVGID_8_);fill:none;stroke:#0096C2;stroke-width:7.4908;stroke-linecap:round;stroke-linejoin:round;stroke-miterlimit:10;}
	
		.st32{clip-path:url(#SVGID_8_);fill:none;stroke:#7D7D7D;stroke-width:7.4908;stroke-linecap:round;stroke-linejoin:round;stroke-miterlimit:10;}
	
		.st33{clip-path:url(#SVGID_8_);fill:none;stroke:#CA0000;stroke-width:7.4908;stroke-linecap:round;stroke-linejoin:round;stroke-miterlimit:10;}
	.st34{clip-path:url(#SVGID_10_);}
	.st35{clip-path:url(#SVGID_10_);fill:none;stroke:#B7B9BA;stroke-width:0.5351;stroke-miterlimit:10;}
	
		.st36{clip-path:url(#SVGID_10_);fill:none;stroke:#0096C2;stroke-width:7.4908;stroke-linecap:round;stroke-linejoin:round;stroke-miterlimit:10;}
	
		.st37{clip-path:url(#SVGID_10_);fill:none;stroke:#7D7D7D;stroke-width:7.4908;stroke-linecap:round;stroke-linejoin:round;stroke-miterlimit:10;}
	
		.st38{clip-path:url(#SVGID_10_);fill:none;stroke:#CA0000;stroke-width:7.4908;stroke-linecap:round;stroke-linejoin:round;stroke-miterlimit:10;}
	.st39{clip-path:url(#SVGID_10_);fill:none;stroke:#B7B9BA;stroke-width:0.5126;stroke-miterlimit:10;}
	.st40{clip-path:url(#SVGID_12_);}
	.st41{clip-path:url(#SVGID_12_);fill:none;stroke:#B7B9BA;stroke-width:0.5351;stroke-miterlimit:10;}
	
		.st42{clip-path:url(#SVGID_12_);fill:none;stroke:#0096C2;stroke-width:7.4908;stroke-linecap:round;stroke-linejoin:round;stroke-miterlimit:10;}
	
		.st43{clip-path:url(#SVGID_12_);fill:none;stroke:#7D7D7D;stroke-width:7.4908;stroke-linecap:round;stroke-linejoin:round;stroke-miterlimit:10;}
	
		.st44{clip-path:url(#SVGID_12_);fill:none;stroke:#CA0000;stroke-width:7.4908;stroke-linecap:round;stroke-linejoin:round;stroke-miterlimit:10;}
	.st45{clip-path:url(#SVGID_12_);fill:none;stroke:#B7B9BA;stroke-width:0.5126;stroke-miterlimit:10;}
	.st46{fill:none;stroke:#000000;stroke-width:0.5;stroke-linecap:round;stroke-linejoin:round;stroke-miterlimit:10;}
	.st47{fill:none;stroke:#0096C2;stroke-width:4.1231;stroke-linecap:round;stroke-linejoin:round;stroke-miterlimit:10;}
	.st48{fill:none;stroke:#7D7D7D;stroke-width:4.1231;stroke-linecap:round;stroke-linejoin:round;stroke-miterlimit:10;}
	.st49{fill:none;stroke:#CA0000;stroke-width:4.1231;stroke-linecap:round;stroke-linejoin:round;stroke-miterlimit:10;}
	.st50{clip-path:url(#SVGID_14_);}
	.st51{clip-path:url(#SVGID_14_);fill:none;stroke:#B7B9BA;stroke-width:0.5351;stroke-miterlimit:10;}
	
		.st52{clip-path:url(#SVGID_14_);fill:none;stroke:#0096C2;stroke-width:7.4908;stroke-linecap:round;stroke-linejoin:round;stroke-miterlimit:10;}
	
		.st53{clip-path:url(#SVGID_14_);fill:none;stroke:#7D7D7D;stroke-width:7.4908;stroke-linecap:round;stroke-linejoin:round;stroke-miterlimit:10;}
	
		.st54{clip-path:url(#SVGID_14_);fill:none;stroke:#CA0000;stroke-width:7.4908;stroke-linecap:round;stroke-linejoin:round;stroke-miterlimit:10;}
	.st55{fill:#F5F5F5;stroke:#CA0000;stroke-width:4.1577;stroke-linecap:round;stroke-linejoin:round;stroke-miterlimit:10;}
	.st56{fill:#F5F5F5;stroke:#7D7D7D;stroke-width:4.1577;stroke-linecap:round;stroke-linejoin:round;stroke-miterlimit:10;}
	.st57{fill:none;stroke:#000000;stroke-width:0.5;stroke-miterlimit:10;}
	.st58{fill:none;stroke:#000000;stroke-width:0.5;stroke-miterlimit:10;stroke-dasharray:2.9964,2.9964;}
	.st59{fill:none;stroke:#000000;stroke-width:0.5;stroke-miterlimit:10;stroke-dasharray:2.9907,2.9907;}
	.st60{fill:none;stroke:#000000;stroke-width:0.5;stroke-miterlimit:10;stroke-dasharray:3.1238,3.1238;}
	.st61{fill:#F5F5F5;}
	.st62{fill:none;stroke:#000000;stroke-width:0.5;stroke-miterlimit:10;stroke-dasharray:3,3;}
	.st63{fill:#F5F5F5;stroke:#0096C2;stroke-width:4.1577;stroke-linecap:round;stroke-linejoin:round;stroke-miterlimit:10;}
	.st64{fill:none;stroke:#000000;stroke-width:0.5;stroke-miterlimit:10;stroke-dasharray:3.0265,3.0265;}
	.st65{fill:none;stroke:#000000;stroke-width:0.5;stroke-miterlimit:10;stroke-dasharray:3.0278,3.0278;}
	.st66{fill:#F5F5F5;stroke:#CA0000;stroke-width:2;stroke-linecap:round;stroke-linejoin:round;stroke-miterlimit:10;}
	.st67{fill:#F5F5F5;stroke:#7D7D7D;stroke-width:2;stroke-linecap:round;stroke-linejoin:round;stroke-miterlimit:10;}
	.st68{fill:#F5F5F5;stroke:#0096C2;stroke-width:2;stroke-linecap:round;stroke-linejoin:round;stroke-miterlimit:10;}
	.st69{clip-path:url(#SVGID_16_);}
	.st70{clip-path:url(#SVGID_18_);}
	.st71{clip-path:url(#SVGID_20_);}
	.st72{clip-path:url(#SVGID_22_);}
	.st73{clip-path:url(#SVGID_24_);}
	.st74{clip-path:url(#SVGID_24_);fill:none;stroke:#B7B9BA;stroke-width:0.5351;stroke-miterlimit:10;}
	
		.st75{clip-path:url(#SVGID_24_);fill:none;stroke:#0096C2;stroke-width:7.4908;stroke-linecap:round;stroke-linejoin:round;stroke-miterlimit:10;}
	
		.st76{clip-path:url(#SVGID_24_);fill:none;stroke:#7D7D7D;stroke-width:7.4908;stroke-linecap:round;stroke-linejoin:round;stroke-miterlimit:10;}
	
		.st77{clip-path:url(#SVGID_24_);fill:none;stroke:#CA0000;stroke-width:7.4908;stroke-linecap:round;stroke-linejoin:round;stroke-miterlimit:10;}
	.st78{clip-path:url(#SVGID_26_);}
	.st79{display:none;}
	.st80{display:inline;}
	.st81{fill:#EF2D00;}
	.st82{fill:#009B00;}
</style>
<g id="Layer_1">
	<g id="Parrafos_vertical_1360_x2F_960">
		<g id="Parrafos_1360_x2F_960">
		</g>
	</g>
	<g id="Ubicación_1360_x2F_960">
	</g>
	<g id="Ubicación_con_color_320">
	</g>
	<g id="Cifra_x5F_final">
	</g>
	<g id="Reloj">
	</g>
	<g id="Planisferio_ubicador">
	</g>
	<g id="Accidente_x5F_aeereo">
	</g>
	<g id="Lugar_accidente">
	</g>
	<g id="Capital_x5F_ubicador">
	</g>
	<g id="Ruta_320">
		<g id="Parrafos_vertical_1360_x2F_960_1_">
			<g id="Parrafos_1360_x2F_960_9_">
			</g>
		</g>
		<g id="Ubicación_con_color_1360_x2F_960">
		</g>
		<g id="Ubicación_con_marco_1360_x2F_960">
		</g>
		<g id="Lugar_principal_del_Mapa_1360_x2F_960">
		</g>
		<g id="Ruta_1360_x2F_960">
		</g>
		<g id="Mar_1360_x2F_960">
		</g>
		<g id="Calle_1360_x2F_960">
		</g>
		<g id="Número_y_aclaración_1360_x2F_960">
		</g>
		<g id="Subtítulo_info">
		</g>
		<g id="Titulo_1360_x2F__960">
		</g>
		<g id="Parrafos_1360_x2F_960_5_">
		</g>
	</g>
	<g id="Número_grande_320">
	</g>
	<g id="Mobile">
		<g id="Titulo_320">
		</g>
		<g id="Parrafos_vertical_320">
			<g id="Parrafos_1360_x2F_960_26_">
			</g>
		</g>
		<g id="Mar_320">
		</g>
		<g id="Calle_320">
		</g>
		<g id="Número_y_aclaración_320_19_">
		</g>
		<g id="Ubicación_con_punto_320">
			<g id="Detalle">
			</g>
		</g>
		<g id="Ubicación_con_marco_320">
		</g>
		<g id="Mobile_1_">
			<g id="Titulo_320_21_">
			</g>
			<g id="Parrafos_vertical_320_21_">
				<g id="Parrafos_1360_x2F_960_29_">
				</g>
			</g>
			<g id="Mar_320_21_">
			</g>
			<g id="Calle_320_21_">
			</g>
			<g id="Número_y_aclaración_320_22_">
			</g>
			<g id="Ubicación_con_punto_320_21_">
				<g id="Detalle_21_">
				</g>
			</g>
			<g id="Ubicación_con_marco_320_21_">
			</g>
		</g>
	</g>
	<g id="Número_y_aclaración_320">
	</g>
	<g id="Desktop">
	</g>
	<g id="Mobile_2_">
		<g id="Titulo_320_23_">
		</g>
		<g id="Parrafos_vertical_320_23_">
			<g id="Parrafos_1360_x2F_960_31_">
				<g>
					<line class="st8" x1="146.6" y1="194" x2="1197.6" y2="194"/>
					<line class="st8" x1="146.6" y1="251" x2="1197.6" y2="251"/>
					<line class="st8" x1="146.6" y1="308.1" x2="1197.6" y2="308.1"/>
					<line class="st8" x1="146.6" y1="365.1" x2="1197.6" y2="365.1"/>
					<line class="st8" x1="146.6" y1="422.2" x2="1197.6" y2="422.2"/>
					<line class="st8" x1="146.6" y1="479.2" x2="1197.6" y2="479.2"/>
					<line class="st8" x1="146.6" y1="536.3" x2="1197.6" y2="536.3"/>
					<line class="st9" x1="146.6" y1="596.7" x2="1197.6" y2="596.7"/>
					<line class="st8" x1="146.6" y1="139.4" x2="1197.6" y2="139.4"/>
				</g>
				<g>
					<path d="M376.6,36.3l1.2-0.2l4.5-10.7h2.7l4.4,10.7l1.2,0.1v1.6h-5.5v-1.6h1.5l-0.9-2.3H381l-0.9,2.3h1.6v1.6h-5.1V36.3z
						 M385.1,32.4l-1.3-3.4l-0.3-1.1h-0.1L383,29l-1.3,3.4H385.1z"/>
					<path d="M391.2,36.3l1.4-0.1v-9h-1.4v-1.6h7c2.4,0,4.5,0.5,4.5,3.4c0,1.8-1.3,2.9-2.6,3v0c1.4,0.2,2.1,1.1,2.2,2l0.3,2.1
						l1.4,0.1v1.6h-2.8c-0.9,0-1.3-0.5-1.3-1.3l-0.2-2.6c-0.1-0.8-0.6-1.3-1.6-1.3h-2.6v3.6h1.4v1.6h-5.5V36.3z M397.3,31.1
						c1.6,0,2.6-0.6,2.6-2c0-1.5-1.1-1.9-2.4-1.9h-2.3v3.9H397.3z"/>
					<path d="M404.5,32.1c0-4.5,2.7-6.7,6.8-6.7c1.6,0,2.9,0.1,4.3,0.5v3.1h-2l-0.2-1.6c-0.6-0.1-1.3-0.2-2-0.2c-2.6,0-4,1.6-4,4.7
						c0,2.9,1.2,4.5,3.9,4.5c0.9,0,1.5-0.1,2-0.2v-2.9h-2.4v-1.6h6v1.6l-1,0.1v4.2c-1.1,0.4-3.1,0.6-4.7,0.6
						C407,38.1,404.5,36.1,404.5,32.1z"/>
					<path d="M417.8,36.3l1.4-0.1v-9h-1.4v-1.6h10.4v3.3h-1.9l-0.2-1.7h-4.2v3.5h3l0.1-0.8h1.6v3.3h-1.6l-0.1-0.9h-3v3.9h4.3
						l0.2-1.7h1.9l-0.2,3.4h-10.3V36.3z"/>
					<path d="M433.5,29.9c-0.1-0.1-0.6-0.9-0.6-1.1l-0.1,0c0.1,0.4,0.1,1.6,0.1,1.8v5.8h1.4v1.6h-4.9v-1.6l1.4-0.1v-9h-1.4v-1.6h4.3
						l4.7,7.3c0.1,0.2,0.6,1.1,0.7,1.2h0.1c0-0.2-0.1-1.6-0.1-1.8v-5h-1.4v-1.6h4.8v1.6h-1.4V38h-2.5L433.5,29.9z"/>
					<path d="M446.5,36.3l1.5-0.1v-9h-2.5l-0.1,1.7h-2.1l0.1-3.3h11.9l0.1,3.3h-2.1l-0.1-1.7h-2.5v9.1h1.6v1.6h-5.8V36.3z"/>
					<path d="M456.3,36.3l1.4-0.1v-9h-1.4v-1.6h5.6v1.6h-1.5v9.1h1.4v1.6h-5.5V36.3z"/>
					<path d="M467.1,29.9c-0.1-0.1-0.6-0.9-0.6-1.1l-0.1,0c0.1,0.4,0.1,1.6,0.1,1.8v5.8h1.4v1.6h-4.9v-1.6l1.4-0.1v-9H463v-1.6h4.3
						l4.7,7.3c0.1,0.2,0.6,1.1,0.7,1.2h0.1c0-0.2-0.1-1.6-0.1-1.8v-5h-1.4v-1.6h4.8v1.6h-1.4V38h-2.5L467.1,29.9z"/>
					<path d="M476.2,36.3l1.2-0.2l4.5-10.7h2.7l4.4,10.7l1.2,0.1v1.6h-5.5v-1.6h1.5l-0.9-2.3h-4.7l-0.9,2.3h1.6v1.6h-5.1V36.3z
						 M484.6,32.4l-1.3-3.4l-0.3-1.1h-0.1l-0.4,1.1l-1.3,3.4H484.6z"/>
				</g>
				<g>
					<path d="M585.1,36.3l1.4-0.1v-9h-1.4v-1.6h10.4v3.3h-1.9l-0.2-1.7h-4.2v3.5h3l0.1-0.8h1.6v3.3h-1.6l-0.1-0.9h-3v3.9h4.3
						l0.2-1.7h1.9l-0.2,3.4h-10.3V36.3z"/>
					<path d="M596.9,37.6l-0.1-3h2l0.3,1.5c0.6,0.1,1.4,0.2,1.9,0.2c1.8,0,2.9-0.5,2.9-1.8c0-1.1-0.9-1.4-2.1-1.6l-1.7-0.3
						c-1.9-0.4-3.3-1.3-3.2-3.3c0-2.6,2-3.9,4.9-3.9c1.6,0,2.8,0.2,4.1,0.5v3h-2l-0.2-1.5c-0.3-0.1-1.1-0.2-1.7-0.2
						c-1.9,0-2.5,0.7-2.5,1.7c0,0.9,0.7,1.2,1.4,1.4l2.2,0.5c2.2,0.5,3.5,1.5,3.5,3.4c0,3-2.6,4-5.4,4
						C599.5,38.1,598.2,38,596.9,37.6z"/>
					<path d="M610.3,36.3l1.5-0.1v-9h-2.5l-0.1,1.7H607l0.1-3.3h11.9l0.1,3.3h-2.1l-0.1-1.7h-2.5v9.1h1.6v1.6h-5.8V36.3z"/>
					<path d="M618.2,36.3l1.2-0.2l4.5-10.7h2.7l4.4,10.7l1.2,0.1v1.6h-5.5v-1.6h1.5l-0.9-2.3h-4.7l-0.9,2.3h1.6v1.6h-5.1V36.3z
						 M626.7,32.4l-1.3-3.4l-0.3-1.1H625l-0.4,1.1l-1.3,3.4H626.7z"/>
					<path d="M632.9,36.3l1.4-0.1v-9h-1.4v-1.6h5.8c4.2,0,6.8,2.2,6.8,6.1c0,4.1-2.9,6.2-6.3,6.2h-6.2V36.3z M638.8,36.3
						c2.2,0,3.7-1.6,3.7-4.4c0-3-1.8-4.5-4.1-4.5H637v9H638.8z"/>
					<path d="M646.6,31.9c0-4.2,2.1-6.5,6.1-6.5c4.2,0,6,2.6,6,6.1c0,4.1-2,6.6-6,6.6C648.6,38.1,646.6,35.9,646.6,31.9z
						 M655.8,31.9c0-3-0.9-4.6-3.3-4.6c-2.4,0-3.1,1.8-3.1,4.6c0,2.8,0.9,4.4,3.3,4.4C655.1,36.2,655.8,34.4,655.8,31.9z"/>
					<path d="M659.9,37.6l-0.1-3h2l0.3,1.5c0.6,0.1,1.4,0.2,1.9,0.2c1.8,0,2.9-0.5,2.9-1.8c0-1.1-0.9-1.4-2.1-1.6l-1.7-0.3
						c-1.9-0.4-3.3-1.3-3.2-3.3c0-2.6,2-3.9,4.9-3.9c1.6,0,2.8,0.2,4.1,0.5v3h-2l-0.2-1.5c-0.3-0.1-1.1-0.2-1.7-0.2
						c-1.9,0-2.5,0.7-2.5,1.7c0,0.9,0.7,1.2,1.4,1.4l2.2,0.5c2.2,0.5,3.5,1.5,3.5,3.4c0,3-2.6,4-5.4,4
						C662.5,38.1,661.2,38,659.9,37.6z"/>
					<path d="M675.4,33.7v-6.5H674v-1.6h5.6v1.6h-1.5v6.3c0,2,1.2,2.7,2.7,2.7c1.6,0,2.7-0.7,2.7-2.6v-6.4h-1.3v-1.6h5v1.6h-1.4v6.5
						c0,3.3-2.7,4.5-5.3,4.5C677.8,38.1,675.4,37.1,675.4,33.7z"/>
					<path d="M692.3,29.9c-0.1-0.1-0.6-0.9-0.6-1.1l-0.1,0c0.1,0.4,0.1,1.6,0.1,1.8v5.8h1.4v1.6h-4.9v-1.6l1.4-0.1v-9h-1.4v-1.6h4.3
						l4.7,7.3c0.1,0.2,0.6,1.1,0.7,1.2h0.1c0-0.2-0.1-1.6-0.1-1.8v-5h-1.4v-1.6h4.8v1.6H700V38h-2.5L692.3,29.9z"/>
					<path d="M702.3,36.3l1.4-0.1v-9h-1.4v-1.6h5.6v1.6h-1.5v9.1h1.4v1.6h-5.5V36.3z"/>
					<path d="M709.1,36.3l1.4-0.1v-9H709v-1.6h5.8c4.2,0,6.8,2.2,6.8,6.1c0,4.1-2.9,6.2-6.3,6.2h-6.2V36.3z M715,36.3
						c2.2,0,3.7-1.6,3.7-4.4c0-3-1.8-4.5-4.1-4.5h-1.4v9H715z"/>
					<path d="M722.7,31.9c0-4.2,2.1-6.5,6.1-6.5c4.2,0,6,2.6,6,6.1c0,4.1-2,6.6-6,6.6C724.8,38.1,722.7,35.9,722.7,31.9z M732,31.9
						c0-3-0.9-4.6-3.3-4.6c-2.4,0-3.1,1.8-3.1,4.6c0,2.8,0.9,4.4,3.3,4.4C731.3,36.2,732,34.4,732,31.9z"/>
					<path d="M736,37.6l-0.1-3h2l0.3,1.5c0.6,0.1,1.4,0.2,1.9,0.2c1.8,0,2.9-0.5,2.9-1.8c0-1.1-0.9-1.4-2.1-1.6l-1.7-0.3
						c-1.9-0.4-3.3-1.3-3.2-3.3c0-2.6,2-3.9,4.9-3.9c1.6,0,2.8,0.2,4.1,0.5v3h-2l-0.2-1.5c-0.3-0.1-1.1-0.2-1.7-0.2
						c-1.9,0-2.5,0.7-2.5,1.7c0,0.9,0.7,1.2,1.4,1.4l2.2,0.5c2.2,0.5,3.5,1.5,3.5,3.4c0,3-2.6,4-5.4,4C738.6,38.1,737.3,38,736,37.6
						z"/>
				</g>
				<line class="st19" x1="545.9" y1="32.8" x2="570" y2="32.8"/>
				<g>
					<path d="M828.9,36.3l1.4-0.1v-9h-1.4v-1.6h6.3c2.4,0,4.7,0.7,4.7,3.6c0,2.4-1.5,3.7-4.7,3.7H833v3.4h2.1v1.6h-6.2V36.3z
						 M834.9,31.3c1.5,0,2.2-0.7,2.2-2.1c0-1.5-1-2-2.5-2H833v4.1H834.9z"/>
					<path d="M839.3,36.3l1.2-0.2l4.5-10.7h2.7l4.4,10.7l1.2,0.1v1.6h-5.5v-1.6h1.5l-0.9-2.3h-4.7l-0.9,2.3h1.6v1.6h-5.1V36.3z
						 M847.8,32.4l-1.3-3.4l-0.3-1.1h-0.1l-0.4,1.1l-1.3,3.4H847.8z"/>
					<path d="M853.9,36.3l1.4-0.1v-9h-1.4v-1.6h7c2.4,0,4.5,0.5,4.5,3.4c0,1.8-1.3,2.9-2.6,3v0c1.4,0.2,2.1,1.1,2.2,2l0.3,2.1
						l1.4,0.1v1.6h-2.8c-0.9,0-1.3-0.5-1.3-1.3l-0.2-2.6c-0.1-0.8-0.6-1.3-1.6-1.3H858v3.6h1.4v1.6h-5.5V36.3z M860,31.1
						c1.6,0,2.6-0.6,2.6-2c0-1.5-1.1-1.9-2.4-1.9H858v3.9H860z"/>
					<path d="M866.9,36.3l1.2-0.2l4.5-10.7h2.7l4.4,10.7l1.2,0.1v1.6h-5.5v-1.6h1.5L876,34h-4.7l-0.9,2.3h1.6v1.6h-5.1V36.3z
						 M875.4,32.4l-1.3-3.4l-0.3-1.1h-0.1l-0.4,1.1l-1.3,3.4H875.4z"/>
					<path d="M881.3,32.1c0-4.5,2.7-6.7,6.8-6.7c1.6,0,2.9,0.1,4.3,0.5v3.1h-2l-0.2-1.6c-0.6-0.1-1.3-0.2-2-0.2c-2.6,0-4,1.6-4,4.7
						c0,2.9,1.2,4.5,3.9,4.5c0.9,0,1.5-0.1,2-0.2v-2.9h-2.4v-1.6h6v1.6l-1,0.1v4.2c-1.1,0.4-3.1,0.6-4.7,0.6
						C883.8,38.1,881.3,36.1,881.3,32.1z"/>
					<path d="M895.7,33.7v-6.5h-1.4v-1.6h5.6v1.6h-1.5v6.3c0,2,1.2,2.7,2.7,2.7c1.6,0,2.7-0.7,2.7-2.6v-6.4h-1.3v-1.6h5v1.6h-1.4
						v6.5c0,3.3-2.7,4.5-5.3,4.5C898.1,38.1,895.7,37.1,895.7,33.7z"/>
					<path d="M907.4,36.3l1.2-0.2l4.5-10.7h2.7l4.4,10.7l1.2,0.1v1.6h-5.5v-1.6h1.5l-0.9-2.3h-4.7l-0.9,2.3h1.6v1.6h-5.1V36.3z
						 M915.9,32.4l-1.3-3.4l-0.3-1.1h-0.1l-0.4,1.1l-1.3,3.4H915.9z"/>
					<path d="M923.5,36.3l1.5-0.1v-3.4l-3.6-5.4l-1.2-0.1v-1.6h5.4v1.6h-1.3l2.1,3.3l0.2,0.4h0l0.2-0.4l2-3.3h-1.3v-1.6h4.9v1.6
						l-1.3,0.1l-3.5,5.4v3.6h1.5v1.6h-5.7V36.3z"/>
				</g>
				<line class="st20" x1="789.7" y1="32.8" x2="813.8" y2="32.8"/>
				<g>
					<path class="st2" d="M112.9,195.4c0-1,0.5-1.9,1.7-2.2c-1-0.4-1.5-1-1.5-2.1c0-1.7,1.4-2.3,2.9-2.3c1.5,0,2.9,0.7,2.9,2.3
						c0,1-0.5,1.8-1.6,2.1c1.1,0.2,1.7,1,1.8,2.1c0,1.8-1.4,2.4-3.1,2.4C114.3,197.7,112.9,197,112.9,195.4z M117.7,195.2
						c0-1-0.8-1.7-1.8-1.7c-1,0-1.8,0.5-1.8,1.6c0,1.1,0.8,1.5,1.8,1.5C117,196.8,117.7,196.3,117.7,195.2z M117.7,191.1
						c0-1-0.7-1.5-1.7-1.5c-1,0-1.7,0.5-1.7,1.5c0,0.7,0.5,1.5,1.7,1.5C117,192.7,117.7,192.1,117.7,191.1z"/>
					<path class="st2" d="M119.9,193.4c0-2.7,1-4.7,3.2-4.7c2.2,0,3.1,1.8,3.1,4.4c0,2.6-0.9,4.6-3.2,4.6
						C120.9,197.7,119.9,195.9,119.9,193.4z M124.9,193.3c0-1.9-0.3-3.6-1.8-3.6c-1.6,0-1.8,1.9-1.8,3.6c0,1.8,0.4,3.5,1.8,3.5
						C124.5,196.8,124.9,195,124.9,193.3z"/>
					<path class="st2" d="M127.2,193.4c0-2.7,1-4.7,3.2-4.7c2.2,0,3.1,1.8,3.1,4.4c0,2.6-0.9,4.6-3.2,4.6
						C128.2,197.7,127.2,195.9,127.2,193.4z M132.1,193.3c0-1.9-0.3-3.6-1.8-3.6c-1.6,0-1.8,1.9-1.8,3.6c0,1.8,0.4,3.5,1.8,3.5
						C131.8,196.8,132.1,195,132.1,193.3z"/>
				</g>
				<g>
					<path class="st2" d="M119,137.5c0,2.7-0.9,4.8-3.8,4.8c-0.6,0-1.5-0.1-1.9-0.2l0.2-1c0.2,0,0.8,0.2,1.6,0.2
						c1.8,0,2.5-1.3,2.5-3c-0.4,0.2-1.2,0.6-2.2,0.6c-1.7,0-2.7-1-2.7-2.6c0-1.8,1.1-2.9,3-2.9C118.1,133.4,119,135.2,119,137.5z
						 M114,136.2c0,1.1,0.6,1.8,1.8,1.8c0.9,0,1.7-0.4,1.9-0.6c0-1.1-0.1-3.1-1.9-3.1C114.6,134.3,114,135.1,114,136.2z"/>
					<path class="st2" d="M119.9,138c0-2.7,1-4.7,3.2-4.7c2.2,0,3.1,1.8,3.1,4.4c0,2.6-0.9,4.6-3.2,4.6
						C120.9,142.3,119.9,140.5,119.9,138z M124.9,137.9c0-1.9-0.3-3.6-1.8-3.6c-1.6,0-1.8,1.9-1.8,3.6c0,1.8,0.4,3.5,1.8,3.5
						C124.5,141.4,124.9,139.6,124.9,137.9z"/>
					<path class="st2" d="M127.2,138c0-2.7,1-4.7,3.2-4.7c2.2,0,3.1,1.8,3.1,4.4c0,2.6-0.9,4.6-3.2,4.6
						C128.2,142.3,127.2,140.5,127.2,138z M132.1,137.9c0-1.9-0.3-3.6-1.8-3.6c-1.6,0-1.8,1.9-1.8,3.6c0,1.8,0.4,3.5,1.8,3.5
						C131.8,141.4,132.1,139.6,132.1,137.9z"/>
				</g>
				<g>
					<path d="M192,575.9l1-0.1v-6.9h-1V568h4.1c1.5,0,3,0.5,3,2.2c0,0.9-0.7,1.8-1.7,2v0c1.1,0.2,1.9,0.9,1.9,1.9
						c0,1.8-1.3,2.5-3.1,2.5H192V575.9z M196.1,571.8c1.1,0,1.6-0.5,1.6-1.5c0-1-0.9-1.4-1.8-1.4h-1.6v2.9H196.1z M195.9,575.8
						c1,0,1.9-0.3,1.9-1.6c0-1.1-0.7-1.5-1.8-1.5h-1.7v3.1H195.9z"/>
					<path d="M199.5,575.9l0.9-0.1l3.2-7.8h1.4l3.2,7.8l0.9,0.1v0.9h-3.3v-0.9h1l-0.8-2.1h-3.5l-0.8,2.1h1.1v0.9h-3.2V575.9z
						 M205.6,572.9l-1.2-3l-0.2-0.7h0l-0.2,0.7l-1.2,3H205.6z"/>
					<path d="M209.5,576.5l0-2h1l0.2,1.2c0.5,0.1,1.2,0.1,1.6,0.1c1.4,0,2.4-0.4,2.4-1.5c0-0.9-0.6-1.2-1.5-1.4l-1.4-0.3
						c-1.2-0.3-2.2-0.8-2.2-2.2c0-1.8,1.5-2.6,3.4-2.6c0.9,0,1.8,0.1,2.6,0.3v1.9h-1l-0.1-1.2c-0.2-0.1-0.9-0.2-1.5-0.2
						c-1.6,0-2.1,0.5-2.1,1.5c0,0.8,0.6,1,1.2,1.2l1.6,0.4c1.5,0.3,2.3,1.1,2.3,2.3c0,2-1.6,2.7-3.6,2.7
						C211.4,576.8,210.5,576.7,209.5,576.5z"/>
					<path d="M216.8,575.9l1-0.1v-6.9h-1V568h6.8v2.2h-1l-0.1-1.3h-3.4v2.8h2.5l0-0.7h0.9v2.3h-0.9l0-0.7h-2.5v3.2h3.5l0.2-1.3h1
						l-0.1,2.2h-6.8V575.9z"/>
					<path d="M227.3,575.9l1.3-0.1v-6.6l-1.4,0.2v-0.9l2.4-0.5l0.3,0.1v7.8h1.3v0.9h-3.9V575.9z"/>
					<path d="M232,572.5c0-2.7,1-4.7,3.2-4.7c2.2,0,3.1,1.8,3.1,4.4c0,2.6-0.9,4.6-3.2,4.6C233,576.8,232,575.1,232,572.5z
						 M237,572.4c0-1.9-0.3-3.6-1.8-3.6c-1.6,0-1.8,1.9-1.8,3.6c0,1.8,0.4,3.5,1.8,3.5C236.6,575.9,237,574.2,237,572.4z"/>
					<path d="M239.3,572.5c0-2.7,1-4.7,3.2-4.7c2.2,0,3.1,1.8,3.1,4.4c0,2.6-0.9,4.6-3.2,4.6C240.2,576.8,239.3,575.1,239.3,572.5z
						 M244.2,572.4c0-1.9-0.3-3.6-1.8-3.6c-1.6,0-1.8,1.9-1.8,3.6c0,1.8,0.4,3.5,1.8,3.5C243.9,575.9,244.2,574.2,244.2,572.4z"/>
				</g>
				<g>
					<path d="M198.6,708.3l1.7-0.1v-8.4l-1.8,0.2v-1.7l3.9-0.7l0.4,0.2v10.6h1.6v1.6h-5.8V708.3z"/>
					<path d="M214.7,703.5c0,3.9-1.5,6.6-5.5,6.6c-1.1,0-2.4-0.1-3-0.3l0.4-2c0.2,0.1,1.3,0.3,2.4,0.3c2.2,0,3-1.3,3.1-3.4
						c-0.6,0.3-1.4,0.7-2.8,0.7c-2.6,0-3.8-1.5-3.8-3.7c0-2.6,1.6-4.2,4.6-4.2C213.2,697.5,214.7,699.9,214.7,703.5z M208,701.5
						c0,1.3,0.6,2.2,2,2.2c1,0,1.8-0.4,2.1-0.6c0.1-1.2,0-3.8-2.1-3.8C208.6,699.3,208,700.2,208,701.5z"/>
					<path d="M215.9,704.2c0-3.9,1.5-6.6,5.6-6.6c1.1,0,2.4,0.1,2.9,0.3l-0.4,1.9c-0.3-0.1-1.3-0.3-2.4-0.3c-2.2,0-3,1.3-3.1,3.4
						c0.6-0.4,1.4-0.7,2.8-0.7c2.5,0,3.8,1.5,3.8,3.7c0,2.5-1.6,4.2-4.6,4.2C217.3,710.1,215.9,707.8,215.9,704.2z M222.6,706.1
						c0-1.3-0.6-2.3-2-2.3c-1,0-1.8,0.4-2.1,0.7c-0.1,1,0,3.8,2.1,3.8C222,708.3,222.6,707.4,222.6,706.1z"/>
					<path d="M226.2,704c0-3.8,1.4-6.6,4.8-6.6c3.3,0,4.5,2.7,4.5,6.3c0,3.7-1.3,6.5-4.7,6.5C227.6,710.1,226.2,707.6,226.2,704z
						 M233,703.9c0-2.7-0.4-4.7-2.1-4.7c-1.8,0-2,2.3-2,4.6c0,2.7,0.5,4.6,2.1,4.6C232.7,708.3,233,705.8,233,703.9z"/>
				</g>
				<g>
					<path d="M114.7,707.6c0-2.3,2.5-2.9,5.4-3v-0.6c0-0.8-0.5-1.3-1.5-1.3s-2.1,0.3-3,0.6l-0.5-1.7c1-0.4,2.2-0.6,4-0.6
						c2,0,3.5,0.8,3.5,3.1v3.2l0.1,1.2h1v1.4L121,710h-0.5l-0.1-1.2c-0.7,0.8-1.9,1.3-2.9,1.3C115.5,710.1,114.7,709.1,114.7,707.6z
						 M120.1,707.8v-1.9c-2.1,0-2.9,0.5-2.9,1.5c0,0.8,0.6,1.2,1.3,1.2C119.2,708.6,119.8,708.2,120.1,707.8z"/>
					<path d="M124.6,708.4l0.9-0.1v-5.5l-1,0v-1.5l3-0.1l0.2,0.1l0.1,1c1-0.7,2-1.2,3-1.2c2,0,2.8,1.2,2.8,2.8v4.6h1v1.5h-4.3v-1.5
						l0.9-0.1v-4.1c0-1.3-1-1.5-1.5-1.5c-0.8,0-1.3,0.3-1.7,0.6v5.2h1v1.5h-4.4V708.4z M126.3,699.8c0.3-1.4,1-2.2,2-2.2
						c1.1,0,1.8,0.5,2.5,0.5c0.5,0,0.6-0.3,0.7-0.8l1.5,0.3c-0.2,1.3-1,2.2-2,2.2c-0.9,0-1.8-0.6-2.5-0.6c-0.4,0-0.5,0.5-0.6,0.8
						L126.3,699.8z"/>
					<path d="M135.6,705.7c0-2.8,1.5-4.8,4.5-4.8c2.9,0,4.5,1.7,4.5,4.4c0,2.9-1.6,4.8-4.7,4.8C137.1,710.2,135.6,708.5,135.6,705.7
						z M142.1,705.6c0-1.9-0.6-2.9-2-2.9c-1.3,0-2,1-2,2.9c0,2,0.6,2.9,2,2.9C141.5,708.5,142.1,707.6,142.1,705.6z"/>
					<path d="M145.9,709.7l-0.1-2.3h2.2l0.1,1c0.4,0.1,0.8,0.2,1.2,0.2c0.8,0,1.6-0.3,1.6-1c0-0.7-0.7-0.9-1.5-1.2l-0.9-0.3
						c-1.7-0.5-2.5-1.1-2.5-2.5c0-1.4,0.9-2.7,3.9-2.7c0.7,0,2.2,0.1,3.1,0.6l0,2.1h-2l-0.1-0.9c-0.5-0.1-0.8-0.2-1.2-0.2
						c-0.8,0-1.4,0.3-1.4,0.9c0,0.6,0.7,0.8,1.6,1.1l0.8,0.2c1.9,0.5,2.7,1.5,2.7,2.7c0,1.9-1.7,2.8-4,2.8
						C148,710.2,147,710,145.9,709.7z"/>
				</g>
				<g>
					<path d="M254.5,704.2c0-3.9,1.5-6.6,5.6-6.6c1.1,0,2.4,0.1,2.9,0.3l-0.4,1.9c-0.3-0.1-1.3-0.3-2.4-0.3c-2.2,0-3,1.3-3.1,3.4
						c0.6-0.4,1.4-0.7,2.8-0.7c2.5,0,3.8,1.5,3.8,3.7c0,2.5-1.6,4.2-4.6,4.2C256,710.1,254.5,707.8,254.5,704.2z M261.3,706.1
						c0-1.3-0.6-2.3-2-2.3c-1,0-1.8,0.4-2.1,0.7c-0.1,1,0,3.8,2.1,3.8C260.7,708.3,261.3,707.4,261.3,706.1z"/>
					<path d="M264.8,709.7l0.3-2c0.7,0.2,2.2,0.4,3,0.4c1.7,0,2.7-0.5,2.7-1.8c0-1-0.7-1.5-1.9-1.5h-1.7v-1.9h1.5
						c1.2,0,1.9-0.6,1.9-1.7c0-1.2-1.1-1.6-2.3-1.6c-0.6,0-0.9,0.1-1.4,0.1l-0.1,1.1H265v-2.7c1.1-0.3,2.1-0.5,3.7-0.5
						c2.3,0,4.6,0.8,4.6,3.3c0,1.5-0.9,2.4-2.2,2.7c0,0,0,0.1,0,0.1c1.4,0.3,2.4,1.3,2.4,2.8c0,2.9-2.6,3.7-5.2,3.7
						C267.4,710.1,266.1,710.1,264.8,709.7z"/>
				</g>
				<g>
					<path d="M302.1,704.2c0-3.9,1.5-6.6,5.6-6.6c1.1,0,2.4,0.1,2.9,0.3l-0.4,1.9c-0.3-0.1-1.3-0.3-2.4-0.3c-2.2,0-3,1.3-3.1,3.4
						c0.6-0.4,1.4-0.7,2.8-0.7c2.5,0,3.8,1.5,3.8,3.7c0,2.5-1.6,4.2-4.6,4.2C303.6,710.1,302.1,707.8,302.1,704.2z M308.9,706.1
						c0-1.3-0.6-2.3-2-2.3c-1,0-1.8,0.4-2.1,0.7c-0.1,1,0,3.8,2.1,3.8C308.3,708.3,308.9,707.4,308.9,706.1z"/>
					<path d="M312.5,704.2c0-3.9,1.5-6.6,5.6-6.6c1.1,0,2.4,0.1,2.9,0.3l-0.4,1.9c-0.3-0.1-1.3-0.3-2.4-0.3c-2.2,0-3,1.3-3.1,3.4
						c0.6-0.4,1.4-0.7,2.8-0.7c2.5,0,3.8,1.5,3.8,3.7c0,2.5-1.6,4.2-4.6,4.2C314,710.1,312.5,707.8,312.5,704.2z M319.2,706.1
						c0-1.3-0.6-2.3-2-2.3c-1,0-1.8,0.4-2.1,0.7c-0.1,1,0,3.8,2.1,3.8C318.6,708.3,319.2,707.4,319.2,706.1z"/>
				</g>
				<g>
					<path d="M350,704.2c0-3.9,1.5-6.6,5.6-6.6c1.1,0,2.4,0.1,2.9,0.3l-0.4,1.9c-0.3-0.1-1.3-0.3-2.4-0.3c-2.2,0-3,1.3-3.1,3.4
						c0.6-0.4,1.4-0.7,2.8-0.7c2.5,0,3.8,1.5,3.8,3.7c0,2.5-1.6,4.2-4.6,4.2C351.5,710.1,350,707.8,350,704.2z M356.8,706.1
						c0-1.3-0.6-2.3-2-2.3c-1,0-1.8,0.4-2.1,0.7c-0.1,1,0,3.8,2.1,3.8C356.1,708.3,356.8,707.4,356.8,706.1z"/>
					<path d="M369.6,703.5c0,3.9-1.5,6.6-5.5,6.6c-1.1,0-2.4-0.1-3-0.3l0.4-2c0.2,0.1,1.3,0.3,2.4,0.3c2.2,0,3-1.3,3.1-3.4
						c-0.6,0.3-1.4,0.7-2.8,0.7c-2.6,0-3.8-1.5-3.8-3.7c0-2.6,1.6-4.2,4.6-4.2C368.1,697.5,369.6,699.9,369.6,703.5z M362.8,701.5
						c0,1.3,0.6,2.2,2,2.2c1,0,1.8-0.4,2.1-0.6c0.1-1.2,0-3.8-2.1-3.8C363.5,699.3,362.8,700.2,362.8,701.5z"/>
				</g>
				<g>
					<path d="M404.7,699.5h-4.3l-0.2,1.7h-1.8v-3.5h8.9v1.5l-4.7,10.8h-2.8L404.7,699.5z"/>
					<path d="M408.5,708.1c2.7-2.4,5.7-4.4,5.7-6.8c0-1.2-1-1.8-2.2-1.8c-0.6,0-0.9,0.1-1.3,0.1l-0.1,1.3h-2v-2.9
						c1.1-0.3,2.3-0.5,3.8-0.5c2.2,0,4.5,0.8,4.5,3.6c0,2.9-3.4,5.2-5.4,6.7v0.1h3.5l0.3-1.2l1.7,0l-0.1,3.2h-8.3V708.1z"/>
				</g>
				<g>
					<path d="M452.7,699.5h-4.3l-0.2,1.7h-1.8v-3.5h8.9v1.5l-4.7,10.8h-2.8L452.7,699.5z"/>
					<path d="M456.3,709.8l0.3-1.9c0.8,0.2,1.9,0.3,2.8,0.3c1.6,0,2.8-0.5,2.8-2c0-1.3-1.2-1.9-3.1-1.9c-1.2,0-1.9,0.3-2.2,0.4
						l-0.1-0.1l0.4-6.9h7.1l-0.2,2h-5l-0.2,2.9c0.4-0.1,1-0.2,1.6-0.2c2.4,0,4,1.2,4,3.5c0,3-2.1,4.2-5,4.2
						C458.6,710.1,457.5,710.1,456.3,709.8z"/>
				</g>
				<g>
					<path d="M500.2,699.5h-4.3l-0.2,1.7h-1.8v-3.5h8.9v1.5L498,710h-2.8L500.2,699.5z"/>
					<path d="M503.9,706.8c0-1.3,0.6-2.6,2.2-3.1c-1.4-0.5-2-1.4-2-2.8c0-2.5,2.1-3.5,4.4-3.5s4.3,1,4.3,3.3c0,1.4-0.6,2.5-2.2,2.9
						c1.5,0.3,2.3,1.4,2.3,2.9c0,2.6-2.1,3.5-4.7,3.5C506,710.2,503.9,709.3,503.9,706.8z M510.4,706.5c0-1.1-0.7-1.9-2-1.9
						c-1.2,0-2,0.6-2,1.9c0,1.2,0.8,1.8,2,1.8C509.6,708.3,510.4,707.8,510.4,706.5z M510.4,701.1c0-1.1-0.7-1.8-1.9-1.8
						c-1.2,0-1.9,0.6-1.9,1.8c0,0.9,0.5,1.8,2,1.8C509.7,702.8,510.4,702.2,510.4,701.1z"/>
				</g>
				<g>
					<path d="M543.1,706.8c0-1.3,0.6-2.6,2.2-3.1c-1.4-0.5-2-1.4-2-2.8c0-2.5,2.1-3.5,4.4-3.5s4.3,1,4.3,3.3c0,1.4-0.6,2.5-2.2,2.9
						c1.5,0.3,2.3,1.4,2.3,2.9c0,2.6-2.1,3.5-4.7,3.5C545.2,710.2,543.1,709.3,543.1,706.8z M549.6,706.5c0-1.1-0.7-1.9-2-1.9
						c-1.2,0-2,0.6-2,1.9c0,1.2,0.8,1.8,2,1.8C548.8,708.3,549.6,707.8,549.6,706.5z M549.6,701.1c0-1.1-0.7-1.8-1.9-1.8
						c-1.2,0-1.9,0.6-1.9,1.8c0,0.9,0.5,1.8,2,1.8C548.9,702.8,549.6,702.2,549.6,701.1z"/>
					<path d="M553.6,708.3l1.7-0.1v-8.4l-1.8,0.2v-1.7l3.9-0.7l0.4,0.2v10.6h1.6v1.6h-5.8V708.3z"/>
				</g>
				<g>
					<path d="M589.4,706.8c0-1.3,0.6-2.6,2.2-3.1c-1.4-0.5-2-1.4-2-2.8c0-2.5,2.1-3.5,4.4-3.5s4.3,1,4.3,3.3c0,1.4-0.6,2.5-2.2,2.9
						c1.5,0.3,2.3,1.4,2.3,2.9c0,2.6-2.1,3.5-4.7,3.5C591.6,710.2,589.4,709.3,589.4,706.8z M596,706.5c0-1.1-0.7-1.9-2-1.9
						c-1.2,0-2,0.6-2,1.9c0,1.2,0.8,1.8,2,1.8C595.2,708.3,596,707.8,596,706.5z M595.9,701.1c0-1.1-0.7-1.8-1.9-1.8
						c-1.2,0-1.9,0.6-1.9,1.8c0,0.9,0.5,1.8,2,1.8C595.2,702.8,595.9,702.2,595.9,701.1z"/>
					<path d="M603.7,708.3l1.1-0.1v-1.8h-5.4v-1.7l4.9-7.1h2.9v7.1h2l0,1.7h-2v1.9h0.9v1.6h-4.4V708.3z M604.8,704.7v-4.8h-0.1
						l-3.4,4.8H604.8z"/>
				</g>
				<g>
					<path d="M636.1,706.8c0-1.3,0.6-2.6,2.2-3.1c-1.4-0.5-2-1.4-2-2.8c0-2.5,2.1-3.5,4.4-3.5s4.3,1,4.3,3.3c0,1.4-0.6,2.5-2.2,2.9
						c1.5,0.3,2.3,1.4,2.3,2.9c0,2.6-2.1,3.5-4.7,3.5C638.3,710.2,636.1,709.3,636.1,706.8z M642.7,706.5c0-1.1-0.7-1.9-2-1.9
						c-1.2,0-2,0.6-2,1.9c0,1.2,0.8,1.8,2,1.8C641.9,708.3,642.7,707.8,642.7,706.5z M642.6,701.1c0-1.1-0.7-1.8-1.9-1.8
						c-1.2,0-1.9,0.6-1.9,1.8c0,0.9,0.5,1.8,2,1.8C641.9,702.8,642.6,702.2,642.6,701.1z"/>
					<path d="M652.7,699.5h-4.3l-0.2,1.7h-1.8v-3.5h8.9v1.5l-4.7,10.8h-2.8L652.7,699.5z"/>
				</g>
				<g>
					<path d="M692.9,703.5c0,3.9-1.5,6.6-5.5,6.6c-1.1,0-2.4-0.1-3-0.3l0.4-2c0.2,0.1,1.3,0.3,2.4,0.3c2.2,0,3-1.3,3.1-3.4
						c-0.6,0.3-1.4,0.7-2.8,0.7c-2.6,0-3.8-1.5-3.8-3.7c0-2.6,1.6-4.2,4.6-4.2C691.4,697.5,692.9,699.9,692.9,703.5z M686.2,701.5
						c0,1.3,0.6,2.2,2,2.2c1,0,1.8-0.4,2.1-0.6c0.1-1.2,0-3.8-2.1-3.8C686.8,699.3,686.2,700.2,686.2,701.5z"/>
					<path d="M694.1,704c0-3.8,1.4-6.6,4.8-6.6c3.3,0,4.5,2.7,4.5,6.3c0,3.7-1.3,6.5-4.7,6.5C695.4,710.1,694.1,707.6,694.1,704z
						 M700.8,703.9c0-2.7-0.4-4.7-2.1-4.7c-1.8,0-2,2.3-2,4.6c0,2.7,0.5,4.6,2.1,4.6C700.5,708.3,700.8,705.8,700.8,703.9z"/>
				</g>
				<g>
					<path d="M741.2,703.5c0,3.9-1.5,6.6-5.5,6.6c-1.1,0-2.4-0.1-3-0.3l0.4-2c0.2,0.1,1.3,0.3,2.4,0.3c2.2,0,3-1.3,3.1-3.4
						c-0.6,0.3-1.4,0.7-2.8,0.7c-2.6,0-3.8-1.5-3.8-3.7c0-2.6,1.6-4.2,4.6-4.2C739.7,697.5,741.2,699.9,741.2,703.5z M734.4,701.5
						c0,1.3,0.6,2.2,2,2.2c1,0,1.8-0.4,2.1-0.6c0.1-1.2,0-3.8-2.1-3.8C735.1,699.3,734.4,700.2,734.4,701.5z"/>
					<path d="M742.2,709.7l0.3-2c0.7,0.2,2.2,0.4,3,0.4c1.7,0,2.7-0.5,2.7-1.8c0-1-0.7-1.5-1.9-1.5h-1.7v-1.9h1.5
						c1.2,0,1.9-0.6,1.9-1.7c0-1.2-1.1-1.6-2.3-1.6c-0.6,0-0.9,0.1-1.4,0.1l-0.1,1.1h-1.9v-2.7c1.1-0.3,2.1-0.5,3.7-0.5
						c2.3,0,4.6,0.8,4.6,3.3c0,1.5-0.9,2.4-2.2,2.7c0,0,0,0.1,0,0.1c1.4,0.3,2.4,1.3,2.4,2.8c0,2.9-2.6,3.7-5.2,3.7
						C744.8,710.1,743.5,710.1,742.2,709.7z"/>
				</g>
				<g>
					<path d="M788.8,703.5c0,3.9-1.5,6.6-5.5,6.6c-1.1,0-2.4-0.1-3-0.3l0.4-2c0.2,0.1,1.3,0.3,2.4,0.3c2.2,0,3-1.3,3.1-3.4
						c-0.6,0.3-1.4,0.7-2.8,0.7c-2.6,0-3.8-1.5-3.8-3.7c0-2.6,1.6-4.2,4.6-4.2C787.3,697.5,788.8,699.9,788.8,703.5z M782,701.5
						c0,1.3,0.6,2.2,2,2.2c1,0,1.8-0.4,2.1-0.6c0.1-1.2,0-3.8-2.1-3.8C782.7,699.3,782,700.2,782,701.5z"/>
					<path d="M789.9,704.2c0-3.9,1.5-6.6,5.6-6.6c1.1,0,2.4,0.1,2.9,0.3l-0.4,1.9c-0.3-0.1-1.3-0.3-2.4-0.3c-2.2,0-3,1.3-3.1,3.4
						c0.6-0.4,1.4-0.7,2.8-0.7c2.5,0,3.8,1.5,3.8,3.7c0,2.5-1.6,4.2-4.6,4.2C791.4,710.1,789.9,707.8,789.9,704.2z M796.6,706.1
						c0-1.3-0.6-2.3-2-2.3c-1,0-1.8,0.4-2.1,0.7c-0.1,1,0,3.8,2.1,3.8C796,708.3,796.6,707.4,796.6,706.1z"/>
				</g>
				<g>
					<path d="M836.6,703.5c0,3.9-1.5,6.6-5.5,6.6c-1.1,0-2.4-0.1-3-0.3l0.4-2c0.2,0.1,1.3,0.3,2.4,0.3c2.2,0,3-1.3,3.1-3.4
						c-0.6,0.3-1.4,0.7-2.8,0.7c-2.6,0-3.8-1.5-3.8-3.7c0-2.6,1.6-4.2,4.6-4.2C835.2,697.5,836.6,699.9,836.6,703.5z M829.9,701.5
						c0,1.3,0.6,2.2,2,2.2c1,0,1.8-0.4,2.1-0.6c0.1-1.2,0-3.8-2.1-3.8C830.5,699.3,829.9,700.2,829.9,701.5z"/>
					<path d="M847,703.5c0,3.9-1.5,6.6-5.5,6.6c-1.1,0-2.4-0.1-3-0.3l0.4-2c0.2,0.1,1.3,0.3,2.4,0.3c2.2,0,3-1.3,3.1-3.4
						c-0.6,0.3-1.4,0.7-2.8,0.7c-2.6,0-3.8-1.5-3.8-3.7c0-2.6,1.6-4.2,4.6-4.2C845.5,697.5,847,699.9,847,703.5z M840.2,701.5
						c0,1.3,0.6,2.2,2,2.2c1,0,1.8-0.4,2.1-0.6c0.1-1.2,0-3.8-2.1-3.8C840.9,699.3,840.2,700.2,840.2,701.5z"/>
				</g>
				<g>
					<path d="M1020.1,708.3l1.7-0.1v-8.4l-1.8,0.2v-1.7l3.9-0.7l0.4,0.2v10.6h1.6v1.6h-5.8V708.3z"/>
					<path d="M1027.4,708.3l1.7-0.1v-8.4l-1.8,0.2v-1.7l3.9-0.7l0.4,0.2v10.6h1.6v1.6h-5.8V708.3z"/>
				</g>
				<g>
					<path d="M1066.5,708.3l1.7-0.1v-8.4l-1.8,0.2v-1.7l3.9-0.7l0.4,0.2v10.6h1.6v1.6h-5.8V708.3z"/>
					<path d="M1077.5,708.3l1.1-0.1v-1.8h-5.4v-1.7l4.9-7.1h2.9v7.1h2l0,1.7h-2v1.9h0.9v1.6h-4.4V708.3z M1078.6,704.7v-4.8h-0.1
						l-3.4,4.8H1078.6z"/>
				</g>
				<g>
					<path d="M1114.5,708.3l1.7-0.1v-8.4l-1.8,0.2v-1.7l3.9-0.7l0.4,0.2v10.6h1.6v1.6h-5.8V708.3z"/>
					<path d="M1127.8,699.5h-4.3l-0.2,1.7h-1.8v-3.5h8.9v1.5l-4.7,10.8h-2.8L1127.8,699.5z"/>
				</g>
				<g>
					<path d="M1158.5,708.1c2.7-2.4,5.7-4.4,5.7-6.8c0-1.2-1-1.8-2.2-1.8c-0.6,0-0.9,0.1-1.3,0.1l-0.1,1.3h-2v-2.9
						c1.1-0.3,2.3-0.5,3.8-0.5c2.2,0,4.5,0.8,4.5,3.6c0,2.9-3.4,5.2-5.4,6.7v0.1h3.5l0.3-1.2l1.7,0l-0.1,3.2h-8.3V708.1z"/>
					<path d="M1168.1,704c0-3.8,1.4-6.6,4.8-6.6c3.3,0,4.5,2.7,4.5,6.3c0,3.7-1.3,6.5-4.7,6.5C1169.4,710.1,1168.1,707.6,1168.1,704
						z M1174.8,703.9c0-2.7-0.4-4.7-2.1-4.7c-1.8,0-2,2.3-2,4.6c0,2.7,0.5,4.6,2.1,4.6C1174.5,708.3,1174.8,705.8,1174.8,703.9z"/>
				</g>
				<g>
					<path d="M875.6,704c0-3.8,1.4-6.6,4.8-6.6c3.3,0,4.5,2.7,4.5,6.3c0,3.7-1.3,6.5-4.7,6.5C876.9,710.1,875.6,707.6,875.6,704z
						 M882.3,703.9c0-2.7-0.4-4.7-2.1-4.7c-1.8,0-2,2.3-2,4.6c0,2.7,0.5,4.6,2.1,4.6C882,708.3,882.3,705.8,882.3,703.9z"/>
					<path d="M886.2,708.1c2.7-2.4,5.7-4.4,5.7-6.8c0-1.2-1-1.8-2.2-1.8c-0.6,0-0.9,0.1-1.3,0.1l-0.1,1.3h-2v-2.9
						c1.1-0.3,2.3-0.5,3.8-0.5c2.2,0,4.5,0.8,4.5,3.6c0,2.9-3.4,5.2-5.4,6.7v0.1h3.5l0.3-1.2l1.7,0l-0.1,3.2h-8.3V708.1z"/>
				</g>
				<g>
					<path d="M923.6,704c0-3.8,1.4-6.6,4.8-6.6c3.3,0,4.5,2.7,4.5,6.3c0,3.7-1.3,6.5-4.7,6.5C924.9,710.1,923.6,707.6,923.6,704z
						 M930.3,703.9c0-2.7-0.4-4.7-2.1-4.7c-1.8,0-2,2.3-2,4.6c0,2.7,0.5,4.6,2.1,4.6C930,708.3,930.3,705.8,930.3,703.9z"/>
					<path d="M934,709.8l0.3-1.9c0.8,0.2,1.9,0.3,2.8,0.3c1.6,0,2.8-0.5,2.8-2c0-1.3-1.2-1.9-3.1-1.9c-1.2,0-1.9,0.3-2.2,0.4
						l-0.1-0.1l0.4-6.9h7.1l-0.2,2h-5l-0.2,2.9c0.4-0.1,1-0.2,1.6-0.2c2.4,0,4,1.2,4,3.5c0,3-2.1,4.2-5,4.2
						C936.3,710.1,935.2,710.1,934,709.8z"/>
				</g>
				<g>
					<path d="M971,704c0-3.8,1.4-6.6,4.8-6.6c3.3,0,4.5,2.7,4.5,6.3c0,3.7-1.3,6.5-4.7,6.5C972.4,710.1,971,707.6,971,704z
						 M977.8,703.9c0-2.7-0.4-4.7-2.1-4.7c-1.8,0-2,2.3-2,4.6c0,2.7,0.5,4.6,2.1,4.6C977.5,708.3,977.8,705.8,977.8,703.9z"/>
					<path d="M981.5,706.8c0-1.3,0.6-2.6,2.2-3.1c-1.4-0.5-2-1.4-2-2.8c0-2.5,2.1-3.5,4.4-3.5s4.3,1,4.3,3.3c0,1.4-0.6,2.5-2.2,2.9
						c1.5,0.3,2.3,1.4,2.3,2.9c0,2.6-2.1,3.5-4.7,3.5C983.7,710.2,981.5,709.3,981.5,706.8z M988.1,706.5c0-1.1-0.7-1.9-2-1.9
						c-1.2,0-2,0.6-2,1.9c0,1.2,0.8,1.8,2,1.8C987.3,708.3,988.1,707.8,988.1,706.5z M988,701.1c0-1.1-0.7-1.8-1.9-1.8
						c-1.2,0-1.9,0.6-1.9,1.8c0,0.9,0.5,1.8,2,1.8C987.3,702.8,988,702.2,988,701.1z"/>
				</g>
				<g>
					<path class="st2" d="M117.7,246.7h-3.6l-0.1,1.2H113v-2.2h5.9v0.8l-3.6,7.8H114L117.7,246.7z"/>
					<path class="st2" d="M119.9,250.3c0-2.7,1-4.7,3.2-4.7c2.2,0,3.1,1.8,3.1,4.4c0,2.6-0.9,4.6-3.2,4.6
						C120.9,254.6,119.9,252.8,119.9,250.3z M124.9,250.2c0-1.9-0.3-3.6-1.8-3.6c-1.6,0-1.8,1.9-1.8,3.6c0,1.8,0.4,3.5,1.8,3.5
						C124.5,253.6,124.9,251.9,124.9,250.2z"/>
					<path class="st2" d="M127.2,250.3c0-2.7,1-4.7,3.2-4.7c2.2,0,3.1,1.8,3.1,4.4c0,2.6-0.9,4.6-3.2,4.6
						C128.2,254.6,127.2,252.8,127.2,250.3z M132.1,250.2c0-1.9-0.3-3.6-1.8-3.6c-1.6,0-1.8,1.9-1.8,3.6c0,1.8,0.4,3.5,1.8,3.5
						C131.8,253.6,132.1,251.9,132.1,250.2z"/>
				</g>
				<g>
					<path class="st2" d="M112.8,306.6c0-2.7,1-4.8,3.9-4.8c0.6,0,1.5,0.1,1.8,0.2l-0.2,1c-0.2,0-0.8-0.2-1.6-0.2
						c-1.8,0-2.5,1.3-2.6,3c0.4-0.3,1.2-0.6,2.2-0.6c1.7,0,2.7,1,2.7,2.6c0,1.7-1.1,2.9-3.1,2.9
						C113.7,310.7,112.8,308.8,112.8,306.6z M117.7,307.8c0-1.1-0.6-1.9-1.8-1.9c-0.9,0-1.7,0.4-1.9,0.6c0,1,0.1,3.1,1.9,3.1
						C117.2,309.7,117.7,308.9,117.7,307.8z"/>
					<path class="st2" d="M119.9,306.3c0-2.7,1-4.7,3.2-4.7c2.2,0,3.1,1.8,3.1,4.4c0,2.6-0.9,4.6-3.2,4.6
						C120.9,310.7,119.9,308.9,119.9,306.3z M124.9,306.2c0-1.9-0.3-3.6-1.8-3.6c-1.6,0-1.8,1.9-1.8,3.6c0,1.8,0.4,3.5,1.8,3.5
						C124.5,309.7,124.9,308,124.9,306.2z"/>
					<path class="st2" d="M127.2,306.3c0-2.7,1-4.7,3.2-4.7c2.2,0,3.1,1.8,3.1,4.4c0,2.6-0.9,4.6-3.2,4.6
						C128.2,310.7,127.2,308.9,127.2,306.3z M132.1,306.2c0-1.9-0.3-3.6-1.8-3.6c-1.6,0-1.8,1.9-1.8,3.6c0,1.8,0.4,3.5,1.8,3.5
						C131.8,309.7,132.1,308,132.1,306.2z"/>
				</g>
				<g>
					<path class="st2" d="M113.3,368.3l0.2-1c0.6,0.2,1.4,0.3,2,0.3c1.4,0,2.3-0.6,2.3-1.8c0-1-0.8-1.7-2.3-1.7
						c-0.9,0-1.5,0.3-1.7,0.4l-0.1-0.1l0.4-4.6h4.7l-0.1,1H115l-0.2,2.6c0.3-0.1,0.8-0.2,1.3-0.2c1.8,0,2.8,1.1,2.8,2.5
						c0,2-1.4,2.9-3.4,2.9C115,368.5,114.1,368.5,113.3,368.3z"/>
					<path class="st2" d="M119.9,364.2c0-2.7,1-4.7,3.2-4.7c2.2,0,3.1,1.8,3.1,4.4c0,2.6-0.9,4.6-3.2,4.6
						C120.9,368.5,119.9,366.7,119.9,364.2z M124.9,364.1c0-1.9-0.3-3.6-1.8-3.6c-1.6,0-1.8,1.9-1.8,3.6c0,1.8,0.4,3.5,1.8,3.5
						C124.5,367.6,124.9,365.8,124.9,364.1z"/>
					<path class="st2" d="M127.2,364.2c0-2.7,1-4.7,3.2-4.7c2.2,0,3.1,1.8,3.1,4.4c0,2.6-0.9,4.6-3.2,4.6
						C128.2,368.5,127.2,366.7,127.2,364.2z M132.1,364.1c0-1.9-0.3-3.6-1.8-3.6c-1.6,0-1.8,1.9-1.8,3.6c0,1.8,0.4,3.5,1.8,3.5
						C131.8,367.6,132.1,365.8,132.1,364.1z"/>
				</g>
				<g>
					<path class="st2" d="M115.7,423.7l0.8-0.1V422h-3.9v-1l3.7-5.2h1.4v5.2h1.6l0,0.9h-1.6v1.7h0.7v0.9h-2.7V423.7z M116.5,421
						v-3.9h0l-2.8,3.9H116.5z"/>
					<path class="st2" d="M119.9,420.3c0-2.7,1-4.7,3.2-4.7c2.2,0,3.1,1.8,3.1,4.4c0,2.6-0.9,4.6-3.2,4.6
						C120.9,424.7,119.9,422.9,119.9,420.3z M124.9,420.3c0-1.9-0.3-3.6-1.8-3.6c-1.6,0-1.8,1.9-1.8,3.6c0,1.8,0.4,3.5,1.8,3.5
						C124.5,423.7,124.9,422,124.9,420.3z"/>
					<path class="st2" d="M127.2,420.3c0-2.7,1-4.7,3.2-4.7c2.2,0,3.1,1.8,3.1,4.4c0,2.6-0.9,4.6-3.2,4.6
						C128.2,424.7,127.2,422.9,127.2,420.3z M132.1,420.3c0-1.9-0.3-3.6-1.8-3.6c-1.6,0-1.8,1.9-1.8,3.6c0,1.8,0.4,3.5,1.8,3.5
						C131.8,423.7,132.1,422,132.1,420.3z"/>
				</g>
				<g>
					<path class="st2" d="M113.1,481.3l0.2-1c0.6,0.2,1.5,0.3,2.1,0.3c1.3,0,2.3-0.4,2.3-1.6c0-1-0.7-1.4-1.7-1.4h-1.1v-1h1
						c1,0,1.5-0.5,1.5-1.4c0-1.1-1-1.4-2-1.4c-0.6,0-0.8,0-1.2,0.1l-0.1,0.9h-1v-1.7c0.7-0.2,1.3-0.4,2.4-0.4c1.7,0,3.1,0.7,3.1,2.3
						c0,1-0.6,1.8-1.5,1.9c0,0,0,0,0,0c1.1,0.2,1.8,0.9,1.8,2c0,2-1.6,2.7-3.6,2.7C114.9,481.6,113.9,481.6,113.1,481.3z"/>
					<path class="st2" d="M119.9,477.3c0-2.7,1-4.7,3.2-4.7c2.2,0,3.1,1.8,3.1,4.4c0,2.6-0.9,4.6-3.2,4.6
						C120.9,481.6,119.9,479.8,119.9,477.3z M124.9,477.2c0-1.9-0.3-3.6-1.8-3.6c-1.6,0-1.8,1.9-1.8,3.6c0,1.8,0.4,3.5,1.8,3.5
						C124.5,480.7,124.9,478.9,124.9,477.2z"/>
					<path class="st2" d="M127.2,477.3c0-2.7,1-4.7,3.2-4.7c2.2,0,3.1,1.8,3.1,4.4c0,2.6-0.9,4.6-3.2,4.6
						C128.2,481.6,127.2,479.8,127.2,477.3z M132.1,477.2c0-1.9-0.3-3.6-1.8-3.6c-1.6,0-1.8,1.9-1.8,3.6c0,1.8,0.4,3.5,1.8,3.5
						C131.8,480.7,132.1,478.9,132.1,477.2z"/>
				</g>
				<g>
					<path class="st2" d="M113.3,537.5c2.1-2,4.2-3.6,4.2-5.3c0-0.9-0.8-1.5-1.9-1.5c-0.6,0-0.8,0-1.2,0.1l-0.1,1h-1V530
						c0.7-0.2,1.4-0.4,2.5-0.4c1.6,0,3,0.7,3,2.4c0,2-2.3,3.8-4.1,5.2v0.1h3.1l0.2-1h0.9l-0.1,2h-5.6V537.5z"/>
					<path class="st2" d="M119.9,534.2c0-2.7,1-4.7,3.2-4.7c2.2,0,3.1,1.8,3.1,4.4c0,2.6-0.9,4.6-3.2,4.6
						C120.9,538.6,119.9,536.8,119.9,534.2z M124.9,534.2c0-1.9-0.3-3.6-1.8-3.6c-1.6,0-1.8,1.9-1.8,3.6c0,1.8,0.4,3.5,1.8,3.5
						C124.5,537.6,124.9,535.9,124.9,534.2z"/>
					<path class="st2" d="M127.2,534.2c0-2.7,1-4.7,3.2-4.7c2.2,0,3.1,1.8,3.1,4.4c0,2.6-0.9,4.6-3.2,4.6
						C128.2,538.6,127.2,536.8,127.2,534.2z M132.1,534.2c0-1.9-0.3-3.6-1.8-3.6c-1.6,0-1.8,1.9-1.8,3.6c0,1.8,0.4,3.5,1.8,3.5
						C131.8,537.6,132.1,535.9,132.1,534.2z"/>
				</g>
				<g>
					<path class="st2" d="M115.2,596.4l1.3-0.1v-6.6l-1.4,0.2V589l2.4-0.5l0.3,0.1v7.8h1.3v0.9h-3.9V596.4z"/>
					<path class="st2" d="M119.9,593c0-2.7,1-4.7,3.2-4.7c2.2,0,3.1,1.8,3.1,4.4c0,2.6-0.9,4.6-3.2,4.6
						C120.9,597.4,119.9,595.6,119.9,593z M124.9,593c0-1.9-0.3-3.6-1.8-3.6c-1.6,0-1.8,1.9-1.8,3.6c0,1.8,0.4,3.5,1.8,3.5
						C124.5,596.4,124.9,594.7,124.9,593z"/>
					<path class="st2" d="M127.2,593c0-2.7,1-4.7,3.2-4.7c2.2,0,3.1,1.8,3.1,4.4c0,2.6-0.9,4.6-3.2,4.6
						C128.2,597.4,127.2,595.6,127.2,593z M132.1,593c0-1.9-0.3-3.6-1.8-3.6c-1.6,0-1.8,1.9-1.8,3.6c0,1.8,0.4,3.5,1.8,3.5
						C131.8,596.4,132.1,594.7,132.1,593z"/>
				</g>
				<g>
					<path class="st2" d="M127.2,655.5c0-2.7,1-4.7,3.2-4.7c2.2,0,3.1,1.8,3.1,4.4c0,2.6-0.9,4.6-3.2,4.6
						C128.2,659.8,127.2,658,127.2,655.5z M132.1,655.4c0-1.9-0.3-3.6-1.8-3.6c-1.6,0-1.8,1.9-1.8,3.6c0,1.8,0.4,3.5,1.8,3.5
						C131.8,658.9,132.1,657.1,132.1,655.4z"/>
				</g>
				<line class="st11" x1="216.7" y1="676.5" x2="216.7" y2="599"/>
				<line class="st11" x1="264.3" y1="676.5" x2="264.3" y2="589.4"/>
				<line class="st11" x1="311.9" y1="676.5" x2="311.9" y2="581"/>
				<line class="st11" x1="359.5" y1="676.5" x2="359.5" y2="575"/>
				<line class="st11" x1="407.1" y1="676.5" x2="407.1" y2="567.8"/>
				<line class="st11" x1="454.7" y1="676.5" x2="454.7" y2="548.6"/>
				<line class="st11" x1="502.3" y1="676.5" x2="502.3" y2="501.8"/>
				<line class="st11" x1="549.9" y1="676.5" x2="549.9" y2="467"/>
				<line class="st11" x1="597.5" y1="676.5" x2="597.5" y2="418.9"/>
				<line class="st11" x1="645.2" y1="676.5" x2="645.2" y2="370.9"/>
				<line class="st11" x1="692.8" y1="676.5" x2="692.8" y2="277.2"/>
				<line class="st11" x1="740.4" y1="676.5" x2="740.4" y2="246"/>
				<line class="st11" x1="788" y1="676.5" x2="788" y2="249.6"/>
				<line class="st11" x1="835.6" y1="676.5" x2="835.6" y2="244.8"/>
				<line class="st11" x1="883.2" y1="676.5" x2="883.2" y2="246"/>
				<line class="st11" x1="930.8" y1="676.5" x2="930.8" y2="243.6"/>
				<line class="st11" x1="978.4" y1="676.5" x2="978.4" y2="240"/>
				<line class="st11" x1="1026" y1="676.5" x2="1026" y2="229.2"/>
				<line class="st11" x1="1073.7" y1="676.5" x2="1073.7" y2="220.8"/>
				<line class="st11" x1="1121.3" y1="676.5" x2="1121.3" y2="207.6"/>
				<line class="st11" x1="1168.9" y1="676.5" x2="1168.9" y2="199.2"/>
				<g>
					<path d="M1190,708.1c2.7-2.4,5.7-4.4,5.7-6.8c0-1.2-1-1.8-2.2-1.8c-0.6,0-0.9,0.1-1.3,0.1l-0.1,1.3h-2v-2.9
						c1.1-0.3,2.3-0.5,3.8-0.5c2.2,0,4.5,0.8,4.5,3.6c0,2.9-3.4,5.2-5.4,6.7v0.1h3.5l0.3-1.2l1.7,0l-0.1,3.2h-8.3V708.1z"/>
					<path d="M1199.9,708.3l1.7-0.1v-8.4l-1.8,0.2v-1.7l3.9-0.7l0.4,0.2v10.6h1.6v1.6h-5.8V708.3z"/>
				</g>
				<path class="st12" d="M1193,571.7l-86.6-1.1c0,0-4.8,3.3-12.4,3.3c-7.6,0-110.4,0-110.4,0l-20.3,1.4l-47.3-0.6l-16.7,1.7
					l-65.5-0.6l-10.8,1.7h-83.7l-17.2,2.8l-34.5,0.6l-42.9,0.6l-25.6,1.1l-40.9,1.1l-53.2,3.9l-23.6,2.8l-51.7,0.6l-31.5,2.8
					l-54.2,0.6l-37.9,1.1l-48.3,3.9l-60.6-0.6"/>
				<polyline class="st13" points="1191.2,524.2 1155.3,526.2 1126.6,525.2 1115,527.2 1076.4,526.2 1062.9,528.3 1035.1,527.2 
					1009.2,530.9 979.2,530.1 948.2,534.5 894,535.3 832,540.8 793.1,543 728.1,551.8 710.7,553.4 662.4,563.8 637.3,564.6 
					588.3,576.6 523.3,579 491.2,584.6 448.5,588.6 405.2,593.4 336,595 297.5,596.6 217.1,598.2 				"/>
				<line class="st28" x1="337.9" y1="32.8" x2="362.1" y2="32.8"/>
				<path class="st14" d="M218.7,599c5.9,0,27.7-6.8,32.3-6c4.6,0.8,23.7-4.5,27-4.5s14.5-0.8,14.5-0.8s28.3-6.8,33-8.3
					c4.6-1.5,23.1-4.5,23.1-4.5s18.5,1.5,23.1,1.5s19.1-4.5,19.1-4.5s34.3-12.1,37.6-12.8s11.9-3,14.5-3s11.9-6,15.2-9.1
					s10.5-21.9,16.5-26.4c5.9-4.5,21.7-13.6,21.7-13.6s21.7-19.6,25.7-21.9c4-2.3,33-19.6,36.2-20.4c3.3-0.8,16.5-13.6,16.5-13.6
					l13.2-18.1l29-47.5c0,0,30.3-14.3,32.3-15.1c2-0.8,17.1-24.1,17.1-24.1l29.7-78.5l15.2-13.6c0,0,18.5-3.8,23.1-3.8
					s64.6-0.8,64.6-0.8s17.8-1.5,23.1-1.5s23.1,1.5,27,1.5c4,0,26.4,1.5,26.4,1.5s6.6-6,24.4-5.3s34.9-0.8,34.9-0.8l34.3-3.8l38.2-6
					l73.2-14.3l54-12.1l57.3-17.4"/>
				<rect x="1164.2" y="99" width="58.1" height="26.1"/>
				<g>
					<path class="st27" d="M1172.6,116c2.8-2.4,6.1-4.5,6.1-7.1c0-1.2-0.9-1.7-2.1-1.7c-0.5,0-0.9,0-1.3,0.1l-0.1,1.3h-2.6v-3.5
						c1.3-0.3,2.8-0.6,4.4-0.6c2.5,0,5.2,0.8,5.2,4.1c0,3.3-4.2,5.8-6.1,6.9v0.1h3.6l0.3-1.1l2.3,0l-0.1,3.8h-9.6V116z"/>
					<path class="st27" d="M1183.5,111.8c0-4.3,1.6-7.3,5.5-7.3c3.9,0,5.2,3,5.2,7c0,4.1-1.5,7.2-5.4,7.2
						C1184.9,118.7,1183.5,115.8,1183.5,111.8z M1190.7,111.7c0-2.9-0.4-4.9-1.9-4.9c-1.7,0-1.9,2.4-1.9,4.8c0,3.1,0.5,4.8,2,4.8
						C1190.6,116.4,1190.7,113.6,1190.7,111.7z"/>
					<path class="st27" d="M1195.6,116c2.8-2.4,6.1-4.5,6.1-7.1c0-1.2-0.9-1.7-2.1-1.7c-0.5,0-0.9,0-1.3,0.1l-0.1,1.3h-2.6v-3.5
						c1.3-0.3,2.8-0.6,4.4-0.6c2.5,0,5.2,0.8,5.2,4.1c0,3.3-4.2,5.8-6.1,6.9v0.1h3.6l0.3-1.1l2.3,0l-0.1,3.8h-9.6V116z"/>
					<path class="st27" d="M1206.9,116.4l1.7-0.2v-8.6l-1.8,0.2v-2.2l4.6-0.9l0.6,0.2v11.5h1.7v2.1h-6.8V116.4z"/>
				</g>
				<line class="st8" x1="146.6" y1="655.5" x2="1197.6" y2="655.5"/>
				<line class="st46" x1="1194.5" y1="123.5" x2="1194.5" y2="689.4"/>
				<g>
					<g>
						<line class="st57" x1="693.5" y1="253.5" x2="692" y2="253.5"/>
						<line class="st58" x1="689" y1="253.5" x2="414.8" y2="253.5"/>
						<polyline class="st57" points="413.3,253.5 411.8,253.5 411.8,255 						"/>
						<line class="st59" x1="411.8" y1="258" x2="411.8" y2="531.7"/>
						<polyline class="st57" points="411.8,533.2 411.8,534.7 413.3,534.7 						"/>
						<line class="st60" x1="416.5" y1="534.7" x2="452.4" y2="534.7"/>
						<line class="st57" x1="453.9" y1="534.7" x2="455.4" y2="534.7"/>
					</g>
				</g>
				<rect x="364.6" y="356.3" class="st61" width="96.5" height="62.6"/>
				<g>
					<g>
						<path d="M364.9,379.2c0-3,1.5-5,4.8-5c1,0,1.9,0.1,2.9,0.4v2.1h-1.1l-0.1-1.3c-0.4-0.1-1-0.2-1.6-0.2c-2.5,0-3.4,1.5-3.4,3.7
							c0,2.8,1,4,3.4,4c0.5,0,1.1-0.1,1.5-0.2l0.2-1.3h1.1l-0.1,2.1c-0.9,0.2-1.8,0.4-2.9,0.4C366.4,384,364.9,382.3,364.9,379.2z"
							/>
						<path d="M373.6,382.9l1-0.1v-7.5h-1.1v-0.9h4.9c1.6,0,3.3,0.4,3.3,2.5c0,1.5-1.2,2.2-2.1,2.3v0c1.1,0.1,1.7,1,1.8,1.7l0.3,1.9
							l1.2,0.1v0.9H381c-0.5,0-0.8-0.4-0.8-0.7l-0.3-2.1c-0.1-0.8-0.5-1.3-1.7-1.3h-2.1v3.2h1.1v0.9h-3.6V382.9z M377.7,378.7
							c1.5,0,2.6-0.4,2.6-1.7c0-1.5-1.2-1.7-2.3-1.7h-1.9v3.4H377.7z"/>
						<path d="M383.4,382.9l1-0.1v-7.5h-1.1v-0.9h7.4v2.3h-1l-0.1-1.4h-3.7v3.1h2.7l0.1-0.8h0.9v2.5h-0.9l-0.1-0.8h-2.7v3.5h3.8
							l0.2-1.4h1.1l-0.1,2.4h-7.4V382.9z"/>
						<path d="M391.9,379.2c0-3,1.5-5,4.8-5c1,0,1.9,0.1,2.9,0.4v2.1h-1.1l-0.1-1.3c-0.4-0.1-1-0.2-1.6-0.2c-2.5,0-3.4,1.5-3.4,3.7
							c0,2.8,1,4,3.4,4c0.5,0,1.1-0.1,1.5-0.2l0.2-1.3h1.1l-0.1,2.1c-0.9,0.2-1.8,0.4-2.9,0.4C393.4,384,391.9,382.3,391.9,379.2z"
							/>
						<path d="M400.6,382.9l1-0.1v-7.5h-1.1v-0.9h3.7v0.9h-1.1v7.6h1.1v0.9h-3.6V382.9z"/>
						<path d="M405.2,382.9l1-0.1v-7.5h-1.1v-0.9h3.2l2.8,7.5h0l2.8-7.5h3.2v0.9h-1.1v7.6h1.1v0.9h-3.6v-0.9l1.1-0.1v-6.6l0.1-0.6
							h-0.1l-3.1,8.1h-1.1l-3-8.1h0l0,0.6v6.6h1.1v0.9h-3.3V382.9z"/>
						<path d="M418.2,382.9l1-0.1v-7.5h-1.1v-0.9h3.7v0.9h-1.1v7.6h1.1v0.9h-3.6V382.9z"/>
						<path d="M422.9,382.9l1-0.1v-7.5h-1.1v-0.9h7.4v2.3h-1l-0.1-1.4h-3.7v3.1h2.7l0.1-0.8h0.9v2.5h-0.9l-0.1-0.8h-2.7v3.5h3.8
							l0.2-1.4h1.1l-0.1,2.4h-7.4V382.9z"/>
						<path d="M434,376.9c0-0.1-0.5-0.8-0.5-0.8l0,0c0,0.1,0.1,1.5,0.1,1.5v5.3h1.1v0.9h-3.3v-0.9l1-0.1v-7.5h-1.1v-0.9h2.7l4.2,6.4
							c0.1,0.1,0.5,0.8,0.5,0.9h0c0-0.1,0-1.5,0-1.5v-4.8h-1.1v-0.9h3.3v0.9h-1v8.5h-1.3L434,376.9z"/>
						<path d="M444.1,382.9l1.1-0.1v-7.5h-2.4l-0.1,1.4h-1.2l0.1-2.3h8.6l0.1,2.3h-1.2l-0.1-1.4h-2.4v7.5h1.3v0.9h-3.8V382.9z"/>
						<path d="M450.9,379.2c0-3.2,1.7-4.9,4.6-4.9c3.3,0,4.5,2.3,4.5,4.7c0,3-1.4,5.1-4.5,5.1C452.5,384,450.9,382.4,450.9,379.2z
							 M458.4,379.2c0-2.2-0.7-3.8-3-3.8c-2.2,0-3,1.6-3,3.9c0,2.4,0.8,3.7,3.1,3.7C457.9,382.9,458.4,381,458.4,379.2z"/>
						<path d="M369.9,399.9l1-0.1l3.4-8.5h1.5l3.4,8.5l1,0.1v0.9h-3.6v-0.9h1.1l-0.9-2.2H373l-0.9,2.2h1.2v0.9h-3.5V399.9z
							 M376.4,396.7l-1.3-3.3l-0.2-0.7h0l-0.3,0.7l-1.3,3.3H376.4z"/>
						<path d="M380.5,396.2c0-3,1.5-5,4.8-5c1,0,1.9,0.1,2.9,0.4v2.1h-1.1l-0.1-1.3c-0.4-0.1-1-0.2-1.6-0.2c-2.5,0-3.4,1.5-3.4,3.7
							c0,2.8,1,4,3.4,4c0.5,0,1.1-0.1,1.5-0.2l0.2-1.3h1.1l-0.1,2.1c-0.9,0.2-1.8,0.4-2.9,0.4C382,401,380.5,399.3,380.5,396.2z"/>
						<path d="M389.2,399.9l1-0.1v-7.5h-1.1v-0.9h7.4v2.3h-1l-0.1-1.4h-3.7v3.1h2.7l0.1-0.8h0.9v2.5h-0.9l-0.1-0.8h-2.7v3.5h3.8
							l0.2-1.4h1.1l-0.1,2.4h-7.4V399.9z"/>
						<path d="M397.7,399.9l1-0.1v-7.5h-1.1v-0.9h3.7v0.9h-1.2v7.5h3.8l0.2-1.4h1.1l-0.1,2.4h-7.5V399.9z"/>
						<path d="M406.4,399.9l1-0.1v-7.5h-1.1v-0.9h7.4v2.3h-1l-0.1-1.4h-3.7v3.1h2.7l0.1-0.8h0.9v2.5h-0.9l-0.1-0.8h-2.7v3.5h3.8
							l0.2-1.4h1.1l-0.1,2.4h-7.4V399.9z"/>
						<path d="M414.9,399.9l1-0.1v-7.5h-1.1v-0.9h4.9c1.6,0,3.3,0.4,3.3,2.5c0,1.5-1.2,2.2-2.1,2.3v0c1.1,0.1,1.7,1,1.8,1.7l0.3,1.9
							l1.2,0.1v0.9h-1.9c-0.5,0-0.8-0.4-0.8-0.7l-0.3-2.1c-0.1-0.8-0.5-1.3-1.7-1.3h-2.1v3.2h1.1v0.9h-3.6V399.9z M419,395.7
							c1.5,0,2.6-0.4,2.6-1.7c0-1.5-1.2-1.7-2.3-1.7h-1.9v3.4H419z"/>
						<path d="M424.4,399.9l1-0.1l3.4-8.5h1.5l3.4,8.5l1,0.1v0.9h-3.6v-0.9h1.1l-0.9-2.2h-3.8l-0.9,2.2h1.2v0.9h-3.5V399.9z
							 M431,396.7l-1.3-3.3l-0.2-0.7h0l-0.3,0.7l-1.3,3.3H431z"/>
						<path d="M435.3,399.9l1-0.1v-7.5h-1.1v-0.9h3.8c2.9,0,5.4,1.3,5.4,4.7c0,3.1-2.2,4.8-4.8,4.8h-4.4V399.9z M439.4,399.9
							c1.9,0,3.4-1.2,3.4-3.7c0-2.7-1.9-3.8-4-3.8h-1.1v7.5H439.4z"/>
						<path d="M445.4,396.2c0-3.2,1.7-4.9,4.6-4.9c3.3,0,4.5,2.3,4.5,4.7c0,3-1.4,5.1-4.5,5.1C447,401,445.4,399.4,445.4,396.2z
							 M453,396.2c0-2.2-0.7-3.8-3-3.8c-2.2,0-3,1.6-3,3.9c0,2.4,0.8,3.7,3.1,3.7C452.4,399.9,453,398,453,396.2z"/>
					</g>
				</g>
				<polyline class="st62" points="693.5,240 693.5,158.1 883.2,158.1 883.2,234.7 				"/>
				<rect x="730" y="135.6" class="st61" width="118.8" height="45.1"/>
				<g>
					<path d="M750.9,161.3l1-0.1v-7.5h-1.1v-0.9h3.7v0.9h-1.1v7.6h1.1v0.9h-3.6V161.3z"/>
					<path d="M758.2,155.2c0-0.1-0.5-0.8-0.5-0.8l0,0c0,0.1,0.1,1.5,0.1,1.5v5.3h1.1v0.9h-3.3v-0.9l1-0.1v-7.5h-1.1v-0.9h2.7
						l4.2,6.4c0.1,0.1,0.5,0.8,0.5,0.9h0c0-0.1,0-1.5,0-1.5v-4.8h-1.1v-0.9h3.3v0.9h-1v8.5h-1.3L758.2,155.2z"/>
					<path d="M766,161.3l1-0.1v-7.5h-1.1v-0.9h7.4v2.3h-1l-0.1-1.3h-3.7v3.1h2.7l0.1-0.8h0.9v2.5h-0.9l-0.1-0.8h-2.7v3.5h1.6v0.9
						H766V161.3z"/>
					<path d="M774.2,161.3l1-0.1v-7.5h-1.1v-0.9h3.7v0.9h-1.2v7.5h3.8l0.2-1.4h1.1l-0.1,2.4h-7.5V161.3z"/>
					<path d="M782.5,161.3l1-0.1l3.4-8.5h1.5l3.4,8.5l1,0.1v0.9h-3.6v-0.9h1.1l-0.9-2.2h-3.8l-0.9,2.2h1.2v0.9h-3.5V161.3z
						 M789,158.1l-1.3-3.3l-0.2-0.7h0l-0.3,0.7l-1.3,3.3H789z"/>
					<path d="M793.1,157.6c0-3,1.5-5,4.8-5c1,0,1.9,0.1,2.9,0.4v2.1h-1.1l-0.1-1.3c-0.4-0.1-1-0.2-1.6-0.2c-2.5,0-3.4,1.5-3.4,3.7
						c0,2.8,1,4,3.4,4c0.5,0,1.1-0.1,1.5-0.2l0.2-1.3h1.1l-0.1,2.1c-0.9,0.2-1.8,0.4-2.9,0.4C794.6,162.3,793.1,160.7,793.1,157.6z"
						/>
					<path d="M801.8,161.3l1-0.1v-7.5h-1.1v-0.9h3.7v0.9h-1.1v7.6h1.1v0.9h-3.6V161.3z"/>
					<path d="M806.4,157.5c0-3.2,1.7-4.9,4.6-4.9c3.3,0,4.5,2.3,4.5,4.7c0,3-1.4,5.1-4.5,5.1C808,162.3,806.4,160.8,806.4,157.5z
						 M814,157.5c0-2.2-0.7-3.8-3-3.8c-2.2,0-3,1.6-3,3.9c0,2.4,0.8,3.7,3.1,3.7C813.5,161.3,814,159.4,814,157.5z M810.4,151.4
						l2.4-1.7l0.7,1.1l-2.7,1.1L810.4,151.4z"/>
					<path d="M819.2,155.2c0-0.1-0.5-0.8-0.5-0.8l0,0c0,0.1,0.1,1.5,0.1,1.5v5.3h1.1v0.9h-3.3v-0.9l1-0.1v-7.5h-1.1v-0.9h2.7
						l4.2,6.4c0.1,0.1,0.5,0.8,0.5,0.9h0c0-0.1,0-1.5,0-1.5v-4.8h-1.1v-0.9h3.3v0.9h-1v8.5h-1.3L819.2,155.2z"/>
					<path d="M752.6,178.3l1-0.1v-7.5h-1.1v-0.9h4.9c1.6,0,3.3,0.4,3.3,2.5c0,1.5-1.2,2.2-2.1,2.3v0c1.1,0.1,1.7,1,1.8,1.7l0.3,1.9
						l1.2,0.1v0.9h-1.9c-0.5,0-0.8-0.4-0.8-0.7l-0.3-2.1c-0.1-0.8-0.5-1.3-1.7-1.3h-2.1v3.2h1.1v0.9h-3.6V178.3z M756.8,174.1
						c1.5,0,2.6-0.4,2.6-1.7c0-1.5-1.2-1.7-2.3-1.7h-1.9v3.4H756.8z"/>
					<path d="M762.4,178.3l1-0.1v-7.5h-1.1v-0.9h7.4v2.3h-1l-0.1-1.4H765v3.1h2.7l0.1-0.8h0.9v2.5h-0.9l-0.1-0.8H765v3.5h3.8
						l0.2-1.4h1.1l-0.1,2.4h-7.4V178.3z"/>
					<path d="M771,178.3l1-0.1v-7.5h-1.1v-0.9h3.8c2.9,0,5.4,1.3,5.4,4.7c0,3.1-2.2,4.8-4.8,4.8H771V178.3z M775.1,178.2
						c1.9,0,3.4-1.2,3.4-3.7c0-2.7-1.9-3.8-4-3.8h-1.1v7.5H775.1z"/>
					<path d="M782,176v-5.4h-1.1v-0.9h3.6v0.9h-1.1v5.2c0,1.8,0.9,2.4,2.4,2.4c1.4,0,2.4-0.7,2.4-2.4v-5.2h-1v-0.9h3.4v0.9h-1v5.3
						c0,2.6-2,3.4-3.8,3.4C783.7,179.3,782,178.5,782,176z"/>
					<path d="M791.5,174.6c0-3,1.5-5,4.8-5c1,0,1.9,0.1,2.9,0.4v2.1h-1.1l-0.1-1.3c-0.4-0.1-1-0.2-1.6-0.2c-2.5,0-3.4,1.5-3.4,3.7
						c0,2.8,1,4,3.4,4c0.5,0,1.1-0.1,1.5-0.2l0.2-1.3h1.1l-0.1,2.1c-0.9,0.2-1.8,0.4-2.9,0.4C793.1,179.3,791.5,177.7,791.5,174.6z"
						/>
					<path d="M800.3,178.3l1-0.1v-7.5h-1.1v-0.9h3.7v0.9h-1.1v7.6h1.1v0.9h-3.6V178.3z"/>
					<path d="M804.9,178.3l1-0.1v-7.5h-1.1v-0.9h3.8c2.9,0,5.4,1.3,5.4,4.7c0,3.1-2.2,4.8-4.8,4.8h-4.4V178.3z M809.1,178.2
						c1.9,0,3.4-1.2,3.4-3.7c0-2.7-1.9-3.8-4-3.8h-1.1v7.5H809.1z"/>
					<path d="M814.4,178.3l1-0.1l3.4-8.5h1.5l3.4,8.5l1,0.1v0.9h-3.6v-0.9h1.1l-0.9-2.2h-3.8l-0.9,2.2h1.2v0.9h-3.5V178.3z
						 M820.9,175.1l-1.3-3.3l-0.2-0.7h0l-0.3,0.7l-1.3,3.3H820.9z"/>
				</g>
				<g>
					<circle class="st63" cx="1194.5" cy="570.7" r="5.5"/>
					<circle class="st56" cx="1194.5" cy="524.1" r="5.5"/>
					<circle class="st55" cx="1194.5" cy="189.6" r="5.5"/>
				</g>
				<g>
					<path class="st17" d="M114.7,777.9l0.9-0.1v-6.4h-0.9v-0.8h6.3v1.9H120l-0.1-1.1h-3.1v2.6h2.3l0-0.6h0.8v2.1h-0.8l0-0.7h-2.3v3
						h1.4v0.8h-3.5V777.9z"/>
					<path class="st17" d="M121.9,776.9l0-3.2h-0.7V773l1.7-0.1l0.1,0.1l0,3.8c0,1,0.7,1.2,1.2,1.2c0.6,0,1.1-0.3,1.4-0.5l0-3.8
						h-0.7V773l1.7-0.1l0.1,0.1l0,4.9l0.7,0v0.7l-1.6,0.1l-0.1-0.1l-0.1-0.5c-0.6,0.4-1.3,0.7-1.9,0.7
						C122.5,778.8,121.9,778,121.9,776.9z"/>
					<path class="st17" d="M128.3,775.8c0-1.7,1-3,2.8-3c1.6,0,2.4,1.2,2.4,2.5v0.6h-4c0,1.2,0.7,2,2,2c0.7,0,1.2-0.1,1.7-0.2
						l0.2,0.8c-0.6,0.2-1.4,0.4-2,0.4C129.2,778.8,128.3,777.6,128.3,775.8z M132.4,775.2c0-1-0.5-1.6-1.4-1.6
						c-0.7,0-1.4,0.5-1.5,1.6L132.4,775.2z"/>
					<path class="st17" d="M134.4,777.9l0.7,0v-4.1l-0.7,0V773l1.6-0.1l0.1,0.1l0.1,0.6c0.6-0.4,1.3-0.7,1.9-0.7
						c1.3,0,1.9,0.8,1.9,1.9v3.2h0.7v0.7h-2.5v-0.7l0.7,0v-2.9c0-1-0.7-1.2-1.2-1.2c-0.6,0-1.1,0.3-1.4,0.5v3.7h0.7v0.7h-2.5V777.9z
						"/>
					<path class="st17" d="M142.1,777.1v-3.3h-0.8v-0.7l0.8-0.1l0.3-1.3h0.8v1.3h1.7v0.8h-1.7v3.2c0,0.6,0.3,0.9,0.9,0.9
						c0.2,0,0.6,0,0.8-0.1l0.1,0.8c-0.4,0.1-0.8,0.2-1.2,0.2C142.7,778.8,142.1,778.1,142.1,777.1z"/>
					<path class="st17" d="M145.7,775.8c0-1.7,1-3,2.8-3c1.6,0,2.4,1.2,2.4,2.5v0.6h-4c0,1.2,0.7,2,2,2c0.7,0,1.2-0.1,1.7-0.2
						l0.2,0.8c-0.6,0.2-1.4,0.4-2,0.4C146.7,778.8,145.7,777.6,145.7,775.8z M149.8,775.2c0-1-0.5-1.6-1.4-1.6
						c-0.7,0-1.4,0.5-1.5,1.6L149.8,775.2z"/>
					<path class="st17" d="M151.9,778.5l-0.1-1.4h1l0.1,0.8c0.3,0.1,0.6,0.1,1,0.1c0.6,0,1.3-0.2,1.3-0.8c0-0.5-0.5-0.8-1.1-1
						l-0.6-0.2c-0.9-0.3-1.6-0.7-1.6-1.6c0-0.8,0.6-1.6,2.3-1.6c0.5,0,1.3,0.1,1.8,0.3l0,1.3h-0.9l-0.1-0.7
						c-0.4-0.1-0.6-0.1-0.9-0.1c-0.6,0-1.1,0.3-1.1,0.7c0,0.5,0.5,0.7,1.1,0.9l0.5,0.1c1.1,0.3,1.7,0.9,1.7,1.7
						c0,1.2-1.1,1.7-2.4,1.7C153.1,778.8,152.5,778.7,151.9,778.5z"/>
					<path class="st17" d="M157.4,773.8c0-0.4,0.2-0.7,0.7-0.7c0.5,0,0.7,0.3,0.7,0.7c0,0.4-0.1,0.7-0.7,0.7
						C157.6,774.5,157.4,774.2,157.4,773.8z M157.4,778.1c0-0.4,0.2-0.7,0.7-0.7c0.5,0,0.7,0.3,0.7,0.7c0,0.4-0.1,0.7-0.7,0.7
						C157.6,778.8,157.4,778.5,157.4,778.1z"/>
					<path class="st17" d="M162.3,774.7c0-2.7,1.4-4.2,3.9-4.2c2.8,0,3.8,1.9,3.8,3.9c0,2.5-1.2,4.3-3.8,4.3
						C163.7,778.8,162.3,777.4,162.3,774.7z M168.7,774.7c0-1.9-0.6-3.3-2.6-3.3c-1.8,0-2.5,1.3-2.5,3.3c0,2,0.7,3.1,2.6,3.1
						C168.3,777.9,168.7,776.3,168.7,774.7z"/>
					<path class="st17" d="M170.3,781.1l0.1-0.9c0.2,0,0.4,0.1,0.7,0.1c0.6,0,0.9-0.4,0.9-1.1v-7.7h-1v-0.8h3.1v0.8h-0.9v7.4
						c0,1.5-0.6,2.3-2,2.3C171,781.2,170.5,781.2,170.3,781.1z"/>
					<path class="st17" d="M174.8,777.9l0.9-0.1v-6.4h-0.9v-0.8h6.3v1.9h-0.9l-0.1-1.1h-3.1v2.6h2.3l0-0.6h0.8v2.1h-0.8l0-0.7h-2.3
						v3h1.4v0.8h-3.5V777.9z"/>
					<path class="st17" d="M181.1,779.8l0.2-2.4h1.2l0,0.2l-0.7,2.4L181.1,779.8z"/>
					<path class="st17" d="M186.1,777.9l0.9-0.1v-6.4h-0.9v-0.8h3.7c1.4,0,2.8,0.4,2.8,2c0,0.9-0.6,1.6-1.5,1.8v0
						c1,0.2,1.7,0.9,1.7,1.8c0,1.7-1.2,2.3-2.8,2.3h-3.8V777.9z M189.9,774.1c1,0,1.5-0.5,1.5-1.4c0-1-0.8-1.3-1.7-1.3h-1.4v2.7
						H189.9z M189.7,777.8c0.9,0,1.7-0.3,1.7-1.5c0-1-0.6-1.4-1.6-1.4h-1.6v2.9H189.7z"/>
					<path class="st17" d="M193.7,777.2c0-1.4,1.4-1.9,3.6-1.9v-0.6c0-0.6-0.4-1-1.1-1c-0.8,0-1.4,0.2-2,0.4l-0.3-0.8
						c0.6-0.2,1.3-0.4,2.4-0.4c1.3,0,2.1,0.6,2.1,1.8v2.5l0.1,0.7h0.8v0.7l-1.5,0.1h-0.3l-0.1-0.7c-0.5,0.5-1.3,0.8-2,0.8
						C194.3,778.8,193.7,778.1,193.7,777.2z M197.3,777.4v-1.5c-1.9,0-2.5,0.5-2.5,1.2c0,0.6,0.4,0.9,1,0.9
						C196.6,778,197.1,777.7,197.3,777.4z"/>
					<path class="st17" d="M200.1,777.9l0.7,0v-4.1l-0.7,0V773l1.6-0.1l0.1,0.1l0.1,0.6c0.6-0.4,1.3-0.7,1.9-0.7
						c1.3,0,1.9,0.8,1.9,1.9v3.2h0.7v0.7h-2.5v-0.7l0.7,0v-2.9c0-1-0.7-1.2-1.2-1.2c-0.6,0-1.1,0.3-1.4,0.5v3.7h0.7v0.7h-2.5V777.9z
						"/>
					<path class="st17" d="M207.2,775.8c0-1.8,1.1-3,3-3c0.5,0,1.3,0.1,1.7,0.2l0,1.5h-0.8l-0.1-0.8c-0.3-0.1-0.6-0.1-0.9-0.1
						c-1.2,0-1.9,0.8-1.9,2.1c0,1.4,0.7,2.1,2,2.1c0.5,0,1.1-0.1,1.6-0.2l0.2,0.8c-0.6,0.2-1.3,0.3-1.8,0.3
						C208.3,778.8,207.2,777.8,207.2,775.8z"/>
					<path class="st17" d="M213,775.9c0-1.8,0.9-3.1,2.8-3.1c1.8,0,2.8,1.1,2.8,2.9c0,1.8-0.9,3.1-2.9,3.1
						C213.9,778.8,213,777.7,213,775.9z M217.4,775.8c0-1.4-0.5-2.2-1.7-2.2c-1.2,0-1.6,0.9-1.6,2.2c0,1.3,0.4,2.2,1.6,2.2
						C217,778,217.4,777.2,217.4,775.8z"/>
					<path class="st17" d="M222,777.9l0.9-0.1v-6.4h-0.9v-0.8h2.7l2.3,6.3h0l2.4-6.3h2.7v0.8h-0.9v6.4h0.9v0.8h-3v-0.8l0.9,0v-5.5
						l0-0.5h0l-2.6,6.9h-1l-2.6-6.9h0l0,0.5v5.6h0.9v0.8H222V777.9z"/>
					<path class="st17" d="M233.5,776.9l0-3.2h-0.7V773l1.7-0.1l0.1,0.1l0,3.8c0,1,0.7,1.2,1.2,1.2c0.6,0,1.1-0.3,1.4-0.5l0-3.8
						h-0.7V773l1.7-0.1l0.1,0.1l0,4.9l0.7,0v0.7l-1.6,0.1l-0.1-0.1l-0.1-0.5c-0.6,0.4-1.3,0.7-1.9,0.7
						C234.2,778.8,233.5,778,233.5,776.9z"/>
					<path class="st17" d="M240,777.9l0.7,0v-4.1l-0.7,0V773l1.6-0.1l0.1,0.1l0.1,0.6c0.6-0.4,1.3-0.7,1.9-0.7
						c1.3,0,1.9,0.8,1.9,1.9v3.2h0.7v0.7h-2.5v-0.7l0.7,0v-2.9c0-1-0.7-1.2-1.2-1.2c-0.6,0-1.1,0.3-1.4,0.5v3.7h0.7v0.7H240V777.9z"
						/>
					<path class="st17" d="M247,775.9c0-1.7,1-3.1,2.9-3.1c0.4,0,0.9,0,1.4,0.2v-2l-0.8,0v-0.8l1.9-0.1l0.1,0.1v7.7h0.8v0.7
						l-1.6,0.1l-0.1-0.1l-0.1-0.6c-0.4,0.4-1.1,0.7-1.8,0.7C247.7,778.8,247,777.5,247,775.9z M251.3,777.5v-3.7
						c-0.2-0.1-0.7-0.2-1.2-0.2c-1.2,0-1.8,0.9-1.8,2.2c0,1.2,0.3,2.1,1.7,2.1C250.5,777.9,251,777.7,251.3,777.5z"/>
					<path class="st17" d="M254.1,777.9l0.7,0v-4.1l-0.7,0V773l1.7-0.1l0.1,0.1v4.9h0.7v0.7h-2.5V777.9z M254.6,771.3
						c0-0.5,0.2-0.7,0.7-0.7s0.7,0.3,0.7,0.7c0,0.4-0.2,0.7-0.7,0.7C254.8,772,254.6,771.7,254.6,771.3z"/>
					<path class="st17" d="M257.5,777.2c0-1.4,1.4-1.9,3.6-1.9v-0.6c0-0.6-0.4-1-1.1-1c-0.8,0-1.4,0.2-2,0.4l-0.3-0.8
						c0.6-0.2,1.3-0.4,2.4-0.4c1.3,0,2.1,0.6,2.1,1.8v2.5l0.1,0.7h0.8v0.7l-1.5,0.1h-0.3l-0.1-0.7c-0.5,0.5-1.3,0.8-2,0.8
						C258.1,778.8,257.5,778.1,257.5,777.2z M261.1,777.4v-1.5c-1.9,0-2.5,0.5-2.5,1.2c0,0.6,0.4,0.9,1,0.9
						C260.4,778,260.9,777.7,261.1,777.4z"/>
					<path class="st17" d="M263.9,777.9l0.7,0V771h-0.8v-0.8l1.8-0.1l0.1,0.1v7.7h0.7v0.7h-2.5V777.9z"/>
					<path class="st17" d="M267.4,779.8l0.2-2.4h1.2l0,0.2l-0.7,2.4L267.4,779.8z"/>
					<path class="st17" d="M272.4,777.9l0.9-0.1v-6.4h-0.9v-0.8h6.3v1.9h-0.9l-0.1-1.1h-3.1v2.6h2.3l0-0.6h0.8v2.1h-0.8l0-0.7h-2.3
						v3h1.4v0.8h-3.5V777.9z"/>
					<path class="st17" d="M279.5,777.9l0.7,0v-4.1l-0.7,0V773l1.6-0.1l0.1,0.1l0.1,0.7c0.6-0.5,1.5-0.8,2.2-0.8c0.2,0,0.4,0,0.6,0
						v1.5h-1v-0.7c-0.6,0-1.2,0.2-1.7,0.6v3.6h1v0.7h-2.8V777.9z"/>
					<path class="st17" d="M284.8,775.8c0-1.7,1-3,2.8-3c1.6,0,2.4,1.2,2.4,2.5v0.6h-4c0,1.2,0.7,2,2,2c0.7,0,1.2-0.1,1.7-0.2
						l0.2,0.8c-0.6,0.2-1.4,0.4-2,0.4C285.8,778.8,284.8,777.6,284.8,775.8z M288.9,775.2c0-1-0.5-1.6-1.4-1.6
						c-0.7,0-1.4,0.5-1.5,1.6L288.9,775.2z"/>
					<path class="st17" d="M290.9,775.9c0-1.7,1-3.1,2.9-3.1c0.4,0,0.9,0,1.4,0.2v-2l-0.8,0v-0.8l1.9-0.1l0.1,0.1v7.7h0.8v0.7
						l-1.6,0.1l-0.1-0.1l-0.1-0.6c-0.4,0.4-1.1,0.7-1.8,0.7C291.6,778.8,290.9,777.5,290.9,775.9z M295.1,777.5v-3.7
						c-0.2-0.1-0.7-0.2-1.2-0.2c-1.2,0-1.8,0.9-1.8,2.2c0,1.2,0.3,2.1,1.7,2.1C294.4,777.9,294.8,777.7,295.1,777.5z"/>
					<path class="st17" d="M298,779.8l0.2-2.4h1.2l0,0.2l-0.7,2.4L298,779.8z"/>
					<path class="st17" d="M303,777.9l0.9-0.1v-6.4H303v-0.8h3.1v0.8h-0.9v6.4h0.9v0.8H303V777.9z"/>
					<path class="st17" d="M307.1,777.9l0.7,0v-4.1l-0.7,0V773l1.6-0.1l0.1,0.1l0.1,0.6c0.6-0.4,1.3-0.7,1.9-0.7
						c1.3,0,1.9,0.8,1.9,1.9v3.2h0.7v0.7h-2.5v-0.7l0.7,0v-2.9c0-1-0.7-1.2-1.2-1.2c-0.6,0-1.1,0.3-1.4,0.5v3.7h0.7v0.7h-2.5V777.9z
						"/>
					<path class="st17" d="M314.2,775.9c0-1.7,1-3.1,2.9-3.1c0.4,0,0.9,0,1.4,0.2v-2l-0.8,0v-0.8l1.9-0.1l0.1,0.1v7.7h0.8v0.7
						l-1.6,0.1l-0.1-0.1l-0.1-0.6c-0.4,0.4-1.1,0.7-1.8,0.7C314.8,778.8,314.2,777.5,314.2,775.9z M318.4,777.5v-3.7
						c-0.2-0.1-0.7-0.2-1.2-0.2c-1.2,0-1.8,0.9-1.8,2.2c0,1.2,0.3,2.1,1.7,2.1C317.7,777.9,318.1,777.7,318.4,777.5z"/>
					<path class="st17" d="M321.1,775.8c0-1.7,1-3,2.8-3c1.6,0,2.4,1.2,2.4,2.5v0.6h-4c0,1.2,0.7,2,2,2c0.7,0,1.2-0.1,1.7-0.2
						l0.2,0.8c-0.6,0.2-1.4,0.4-2,0.4C322.1,778.8,321.1,777.6,321.1,775.8z M325.3,775.2c0-1-0.5-1.6-1.4-1.6
						c-0.7,0-1.4,0.5-1.5,1.6L325.3,775.2z"/>
					<path class="st17" d="M327.2,775.8c0-1.8,1.1-3,3-3c0.5,0,1.3,0.1,1.7,0.2l0,1.5h-0.8l-0.1-0.8c-0.3-0.1-0.6-0.1-0.9-0.1
						c-1.2,0-1.9,0.8-1.9,2.1c0,1.4,0.7,2.1,2,2.1c0.5,0,1.1-0.1,1.6-0.2l0.2,0.8c-0.6,0.2-1.3,0.3-1.8,0.3
						C328.4,778.8,327.2,777.8,327.2,775.8z"/>
					<path class="st17" d="M333.2,779.8l0.2-2.4h1.2l0,0.2l-0.7,2.4L333.2,779.8z"/>
					<path class="st17" d="M338.2,777.9l0.9-0.1v-6.4h-0.9v-0.8h3.1v0.8h-0.9v6.4h0.9v0.8h-3.1V777.9z"/>
					<path class="st17" d="M342.2,777.9l0.7,0v-4.1l-0.7,0V773l1.6-0.1l0.1,0.1l0.1,0.6c0.6-0.4,1.3-0.7,1.9-0.7
						c1.3,0,1.9,0.8,1.9,1.9v3.2h0.7v0.7h-2.5v-0.7l0.7,0v-2.9c0-1-0.7-1.2-1.2-1.2c-0.6,0-1.1,0.3-1.4,0.5v3.7h0.7v0.7h-2.5V777.9z
						"/>
					<path class="st17" d="M349.1,773.8l-0.6,0V773h2.4v0.8h-0.6l1.4,3.5l0.1,0.4h0l0.1-0.4l1.4-3.5h-0.7V773h2.3v0.8l-0.6,0.1
						l-2.1,4.9h-1L349.1,773.8z"/>
					<path class="st17" d="M355.2,775.8c0-1.7,1-3,2.8-3c1.6,0,2.4,1.2,2.4,2.5v0.6h-4c0,1.2,0.7,2,2,2c0.7,0,1.2-0.1,1.7-0.2
						l0.2,0.8c-0.6,0.2-1.4,0.4-2,0.4C356.1,778.8,355.2,777.6,355.2,775.8z M359.3,775.2c0-1-0.5-1.6-1.4-1.6
						c-0.7,0-1.4,0.5-1.5,1.6L359.3,775.2z"/>
					<path class="st17" d="M361.4,778.5l-0.1-1.4h1l0.1,0.8c0.3,0.1,0.6,0.1,1,0.1c0.6,0,1.3-0.2,1.3-0.8c0-0.5-0.5-0.8-1.1-1
						l-0.6-0.2c-0.9-0.3-1.6-0.7-1.6-1.6c0-0.8,0.6-1.6,2.3-1.6c0.5,0,1.3,0.1,1.8,0.3l0,1.3h-0.9l-0.1-0.7
						c-0.4-0.1-0.6-0.1-0.9-0.1c-0.6,0-1.1,0.3-1.1,0.7c0,0.5,0.5,0.7,1.1,0.9l0.5,0.1c1.1,0.3,1.7,0.9,1.7,1.7
						c0,1.2-1.1,1.7-2.4,1.7C362.6,778.8,361.9,778.7,361.4,778.5z"/>
					<path class="st17" d="M367.2,777.1v-3.3h-0.8v-0.7l0.8-0.1l0.3-1.3h0.8v1.3h1.7v0.8h-1.7v3.2c0,0.6,0.3,0.9,0.9,0.9
						c0.2,0,0.6,0,0.8-0.1l0.1,0.8c-0.4,0.1-0.8,0.2-1.2,0.2C367.8,778.8,367.2,778.1,367.2,777.1z"/>
					<path class="st17" d="M370.9,777.9l0.7,0v-4.1l-0.7,0V773l1.7-0.1l0.1,0.1v4.9h0.7v0.7h-2.5V777.9z M371.4,771.3
						c0-0.5,0.2-0.7,0.7-0.7s0.7,0.3,0.7,0.7c0,0.4-0.2,0.7-0.7,0.7C371.6,772,371.4,771.7,371.4,771.3z"/>
					<path class="st17" d="M374.3,777.9l0.7,0v-4.1l-0.7,0V773l1.6-0.1l0.1,0.1l0.1,0.6c0.6-0.4,1.3-0.7,1.9-0.7
						c1.3,0,1.9,0.8,1.9,1.9v3.2h0.7v0.7H378v-0.7l0.7,0v-2.9c0-1-0.7-1.2-1.2-1.2c-0.6,0-1.1,0.3-1.4,0.5v3.7h0.7v0.7h-2.5V777.9z"
						/>
					<path class="st17" d="M381.2,779.6c0-0.5,0.4-1,1-1.3c-0.2-0.1-0.4-0.4-0.4-0.7c0-0.4,0.2-0.8,0.7-1.1c-0.7-0.3-1-1-1-1.6
						c0-1.2,0.9-2,2.3-2c0.6,0,1,0.1,1.4,0.3l1.7-0.2l-0.1,0.9l-1-0.1c0.2,0.2,0.4,0.7,0.4,1.1c0,1.1-0.8,1.9-2.3,1.9
						c-0.3,0-0.5,0-0.7,0c-0.3,0.1-0.4,0.3-0.4,0.5c0,0.2,0.1,0.4,0.5,0.4l1.8,0.1c1,0.1,1.7,0.4,1.7,1.3c0,1.3-1.3,2.1-3.1,2.1
						C382,781.1,381.2,780.4,381.2,779.6z M385.8,779.2c0-0.3-0.2-0.6-1-0.6l-1.4-0.1c-0.2,0-0.4,0-0.5-0.1
						c-0.4,0.2-0.6,0.6-0.6,0.9c0,0.5,0.3,1,1.7,1C385,780.3,385.8,779.9,385.8,779.2z M385.2,774.8c0-0.7-0.3-1.2-1.3-1.2
						c-1,0-1.3,0.6-1.3,1.2c0,0.6,0.3,1.2,1.3,1.2C384.9,776,385.2,775.4,385.2,774.8z"/>
					<path class="st17" d="M387.8,779.8l0.2-2.4h1.2l0,0.2l-0.7,2.4L387.8,779.8z"/>
					<path class="st17" d="M392.6,781.1l0-0.9c0.2,0,0.4,0,0.6,0c0.8-0.1,1.2-0.7,1.5-1.3l0.1-0.3l-2-4.8l-0.6,0V773h2.4v0.8H394
						l1.3,3.4l0.1,0.3h0l0.1-0.3l1.3-3.4h-0.7V773h2.3v0.8l-0.6,0.1l-1.9,4.5c-0.6,1.5-1.3,2.9-2.9,2.9
						C393,781.1,392.8,781.1,392.6,781.1z"/>
					<path class="st17" d="M401.5,777.9l0.9-0.1v-6.4h-0.9v-0.8h3.7c1.4,0,2.8,0.4,2.8,2c0,0.9-0.6,1.6-1.5,1.8v0
						c1,0.2,1.7,0.9,1.7,1.8c0,1.7-1.2,2.3-2.8,2.3h-3.8V777.9z M405.2,774.1c1,0,1.5-0.5,1.5-1.4c0-1-0.8-1.3-1.7-1.3h-1.4v2.7
						H405.2z M405.1,777.8c0.9,0,1.7-0.3,1.7-1.5c0-1-0.6-1.4-1.6-1.4h-1.6v2.9H405.1z"/>
					<path class="st17" d="M409.1,777.2c0-1.4,1.4-1.9,3.6-1.9v-0.6c0-0.6-0.4-1-1.1-1c-0.8,0-1.4,0.2-2,0.4l-0.3-0.8
						c0.6-0.2,1.3-0.4,2.4-0.4c1.3,0,2.1,0.6,2.1,1.8v2.5l0.1,0.7h0.8v0.7l-1.5,0.1h-0.3l-0.1-0.7c-0.5,0.5-1.3,0.8-2,0.8
						C409.6,778.8,409.1,778.1,409.1,777.2z M412.7,777.4v-1.5c-1.9,0-2.5,0.5-2.5,1.2c0,0.6,0.4,0.9,1,0.9
						C411.9,778,412.4,777.7,412.7,777.4z"/>
					<path class="st17" d="M415.4,777.9l0.7,0v-4.1l-0.7,0V773l1.6-0.1l0.1,0.1l0.1,0.6c0.6-0.4,1.3-0.7,1.9-0.7
						c1.3,0,1.9,0.8,1.9,1.9v3.2h0.7v0.7h-2.5v-0.7l0.7,0v-2.9c0-1-0.7-1.2-1.2-1.2c-0.6,0-1.1,0.3-1.4,0.5v3.7h0.7v0.7h-2.5V777.9z
						"/>
					<path class="st17" d="M422.5,775.8c0-1.8,1.1-3,3-3c0.5,0,1.3,0.1,1.7,0.2l0,1.5h-0.8l-0.1-0.8c-0.3-0.1-0.6-0.1-0.9-0.1
						c-1.2,0-1.9,0.8-1.9,2.1c0,1.4,0.7,2.1,2,2.1c0.5,0,1.1-0.1,1.6-0.2l0.2,0.8c-0.6,0.2-1.3,0.3-1.8,0.3
						C423.7,778.8,422.5,777.8,422.5,775.8z"/>
					<path class="st17" d="M428.3,775.9c0-1.8,0.9-3.1,2.8-3.1c1.8,0,2.8,1.1,2.8,2.9c0,1.8-0.9,3.1-2.9,3.1
						C429.3,778.8,428.3,777.7,428.3,775.9z M432.7,775.8c0-1.4-0.5-2.2-1.7-2.2c-1.2,0-1.6,0.9-1.6,2.2c0,1.3,0.4,2.2,1.6,2.2
						C432.3,778,432.7,777.2,432.7,775.8z"/>
					<path class="st17" d="M437.3,774.8c0-2.5,1.3-4.2,4.1-4.2c0.9,0,1.7,0.1,2.4,0.3v1.8h-0.9l-0.1-1.1c-0.4-0.1-0.9-0.1-1.3-0.1
						c-2.1,0-2.8,1.3-2.8,3.1c0,2.4,0.8,3.4,2.9,3.4c0.4,0,0.9-0.1,1.3-0.1l0.2-1.1h0.9l-0.1,1.8c-0.8,0.2-1.5,0.3-2.4,0.3
						C438.6,778.8,437.3,777.4,437.3,774.8z"/>
					<path class="st17" d="M444.7,775.8c0-1.7,1-3,2.8-3c1.6,0,2.4,1.2,2.4,2.5v0.6h-4c0,1.2,0.7,2,2,2c0.7,0,1.2-0.1,1.7-0.2
						l0.2,0.8c-0.6,0.2-1.4,0.4-2,0.4C445.7,778.8,444.7,777.6,444.7,775.8z M448.8,775.2c0-1-0.5-1.6-1.4-1.6
						c-0.7,0-1.4,0.5-1.5,1.6L448.8,775.2z"/>
					<path class="st17" d="M450.8,777.9l0.7,0v-4.1l-0.7,0V773l1.6-0.1l0.1,0.1l0.1,0.6c0.6-0.4,1.3-0.7,1.9-0.7
						c1.3,0,1.9,0.8,1.9,1.9v3.2h0.7v0.7h-2.5v-0.7l0.7,0v-2.9c0-1-0.7-1.2-1.2-1.2c-0.6,0-1.1,0.3-1.4,0.5v3.7h0.7v0.7h-2.5V777.9z
						"/>
					<path class="st17" d="M458.6,777.1v-3.3h-0.8v-0.7l0.8-0.1l0.3-1.3h0.8v1.3h1.7v0.8h-1.7v3.2c0,0.6,0.3,0.9,0.9,0.9
						c0.2,0,0.6,0,0.8-0.1l0.1,0.8c-0.4,0.1-0.8,0.2-1.2,0.2C459.2,778.8,458.6,778.1,458.6,777.1z"/>
					<path class="st17" d="M462.2,777.9l0.7,0v-4.1l-0.7,0V773l1.6-0.1l0.1,0.1l0.1,0.7c0.6-0.5,1.5-0.8,2.2-0.8c0.2,0,0.4,0,0.6,0
						v1.5h-1v-0.7c-0.6,0-1.2,0.2-1.7,0.6v3.6h1v0.7h-2.8V777.9z"/>
					<path class="st17" d="M467.4,777.2c0-1.4,1.4-1.9,3.6-1.9v-0.6c0-0.6-0.4-1-1.1-1c-0.8,0-1.4,0.2-2,0.4l-0.3-0.8
						c0.6-0.2,1.3-0.4,2.4-0.4c1.3,0,2.1,0.6,2.1,1.8v2.5l0.1,0.7h0.8v0.7l-1.5,0.1h-0.3l-0.1-0.7c-0.5,0.5-1.3,0.8-2,0.8
						C467.9,778.8,467.4,778.1,467.4,777.2z M471,777.4v-1.5c-1.9,0-2.5,0.5-2.5,1.2c0,0.6,0.4,0.9,1,0.9
						C470.2,778,470.7,777.7,471,777.4z"/>
					<path class="st17" d="M473.8,777.9l0.7,0V771h-0.8v-0.8l1.8-0.1l0.1,0.1v7.7h0.7v0.7h-2.5V777.9z"/>
					<path class="st17" d="M479.6,775.9c0-1.7,1-3.1,2.9-3.1c0.4,0,0.9,0,1.4,0.2v-2l-0.8,0v-0.8l1.9-0.1l0.1,0.1v7.7h0.8v0.7
						l-1.6,0.1l-0.1-0.1l-0.1-0.6c-0.4,0.4-1.1,0.7-1.8,0.7C480.2,778.8,479.6,777.5,479.6,775.9z M483.8,777.5v-3.7
						c-0.2-0.1-0.7-0.2-1.2-0.2c-1.2,0-1.8,0.9-1.8,2.2c0,1.2,0.3,2.1,1.7,2.1C483.1,777.9,483.5,777.7,483.8,777.5z"/>
					<path class="st17" d="M486.6,775.8c0-1.7,1-3,2.8-3c1.6,0,2.4,1.2,2.4,2.5v0.6h-4c0,1.2,0.7,2,2,2c0.7,0,1.2-0.1,1.7-0.2
						l0.2,0.8c-0.6,0.2-1.4,0.4-2,0.4C487.5,778.8,486.6,777.6,486.6,775.8z M490.7,775.2c0-1-0.5-1.6-1.4-1.6
						c-0.7,0-1.4,0.5-1.5,1.6L490.7,775.2z"/>
					<path class="st17" d="M492.6,777.9l0.7,0V771h-0.8v-0.8l1.8-0.1l0.1,0.1v7.7h0.7v0.7h-2.5V777.9z"/>
					<path class="st17" d="M498.5,777.9l0.9-0.1v-6.4h-0.9v-0.8h3.7c1.4,0,2.9,0.5,2.9,2.3c0,1.5-0.9,2.4-2.9,2.4h-1.5v2.5h1.4v0.8
						h-3.5V777.9z M501.9,774.6c1.2,0,1.8-0.5,1.8-1.6c0-1.2-0.9-1.5-2-1.5h-1.2v3.1H501.9z"/>
					<path class="st17" d="M505.8,777.2c0-1.4,1.4-1.9,3.6-1.9v-0.6c0-0.6-0.4-1-1.1-1c-0.8,0-1.4,0.2-2,0.4l-0.3-0.8
						c0.6-0.2,1.3-0.4,2.4-0.4c1.3,0,2.1,0.6,2.1,1.8v2.5l0.1,0.7h0.8v0.7l-1.5,0.1h-0.3l-0.1-0.7c-0.5,0.5-1.3,0.8-2,0.8
						C506.3,778.8,505.8,778.1,505.8,777.2z M509.4,777.4v-1.5c-1.9,0-2.5,0.5-2.5,1.2c0,0.6,0.4,0.9,1,0.9
						C508.6,778,509.1,777.7,509.4,777.4z"/>
					<path class="st17" d="M512.2,777.9l0.7,0v-4.1l-0.7,0V773l1.6-0.1l0.1,0.1l0.1,0.7c0.6-0.5,1.5-0.8,2.2-0.8c0.2,0,0.4,0,0.6,0
						v1.5h-1v-0.7c-0.6,0-1.2,0.2-1.7,0.6v3.6h1v0.7h-2.8V777.9z"/>
					<path class="st17" d="M517.3,777.2c0-1.4,1.4-1.9,3.6-1.9v-0.6c0-0.6-0.4-1-1.1-1c-0.8,0-1.4,0.2-2,0.4l-0.3-0.8
						c0.6-0.2,1.3-0.4,2.4-0.4c1.3,0,2.1,0.6,2.1,1.8v2.5l0.1,0.7h0.8v0.7l-1.5,0.1h-0.3l-0.1-0.7c-0.5,0.5-1.3,0.8-2,0.8
						C517.9,778.8,517.3,778.1,517.3,777.2z M520.9,777.4v-1.5c-1.9,0-2.5,0.5-2.5,1.2c0,0.6,0.4,0.9,1,0.9
						C520.2,778,520.7,777.7,520.9,777.4z"/>
					<path class="st17" d="M523.5,779.6c0-0.5,0.4-1,1-1.3c-0.2-0.1-0.4-0.4-0.4-0.7c0-0.4,0.2-0.8,0.7-1.1c-0.7-0.3-1-1-1-1.6
						c0-1.2,0.9-2,2.3-2c0.6,0,1,0.1,1.4,0.3l1.7-0.2l-0.1,0.9l-1-0.1c0.2,0.2,0.4,0.7,0.4,1.1c0,1.1-0.8,1.9-2.3,1.9
						c-0.3,0-0.5,0-0.7,0c-0.3,0.1-0.4,0.3-0.4,0.5c0,0.2,0.1,0.4,0.5,0.4l1.8,0.1c1,0.1,1.7,0.4,1.7,1.3c0,1.3-1.3,2.1-3.1,2.1
						C524.3,781.1,523.5,780.4,523.5,779.6z M528.1,779.2c0-0.3-0.2-0.6-1-0.6l-1.4-0.1c-0.2,0-0.4,0-0.5-0.1
						c-0.4,0.2-0.6,0.6-0.6,0.9c0,0.5,0.3,1,1.7,1C527.4,780.3,528.1,779.9,528.1,779.2z M527.5,774.8c0-0.7-0.3-1.2-1.3-1.2
						c-1,0-1.3,0.6-1.3,1.2c0,0.6,0.3,1.2,1.3,1.2C527.2,776,527.5,775.4,527.5,774.8z"/>
					<path class="st17" d="M530.4,776.9l0-3.2h-0.7V773l1.7-0.1l0.1,0.1l0,3.8c0,1,0.7,1.2,1.2,1.2c0.6,0,1.1-0.3,1.4-0.5l0-3.8
						h-0.7V773l1.7-0.1l0.1,0.1l0,4.9l0.7,0v0.7l-1.6,0.1l-0.1-0.1l-0.1-0.5c-0.6,0.4-1.3,0.7-1.9,0.7
						C531,778.8,530.4,778,530.4,776.9z"/>
					<path class="st17" d="M536.9,777.2c0-1.4,1.4-1.9,3.6-1.9v-0.6c0-0.6-0.4-1-1.1-1c-0.8,0-1.4,0.2-2,0.4l-0.3-0.8
						c0.6-0.2,1.3-0.4,2.4-0.4c1.3,0,2.1,0.6,2.1,1.8v2.5l0.1,0.7h0.8v0.7l-1.5,0.1h-0.3l-0.1-0.7c-0.5,0.5-1.3,0.8-2,0.8
						C537.4,778.8,536.9,778.1,536.9,777.2z M540.5,777.4v-1.5c-1.9,0-2.5,0.5-2.5,1.2c0,0.6,0.4,0.9,1,0.9
						C539.7,778,540.2,777.7,540.5,777.4z"/>
					<path class="st17" d="M542.9,781.1l0-0.9c0.2,0,0.4,0,0.6,0c0.8-0.1,1.2-0.7,1.5-1.3l0.1-0.3l-2-4.8l-0.6,0V773h2.4v0.8h-0.6
						l1.3,3.4l0.1,0.3h0l0.1-0.3l1.3-3.4h-0.7V773h2.3v0.8l-0.6,0.1l-1.9,4.5c-0.6,1.5-1.3,2.9-2.9,2.9
						C543.3,781.1,543.1,781.1,542.9,781.1z"/>
				</g>
				<circle class="st26" cx="216.7" cy="598.2" r="5.5"/>
			</g>
		</g>
		<g id="Mar_320_23_">
		</g>
		<g id="Calle_320_23_">
		</g>
		<g id="Número_y_aclaración_320_24_">
		</g>
		<g id="Ubicación_con_punto_320_23_">
			<g id="Detalle_23_">
			</g>
		</g>
		<g id="Ubicación_con_marco_320_23_">
		</g>
	</g>
	<g id="Desktop_1_">
	</g>
</g>
<g id="MOBILE_x5F__x25_" class="st79">
</g>
</svg>
